<svg width="94" height="81" viewBox="0 0 94 81" fill="none" xmlns="http://www.w3.org/2000/svg">
<path d="M13.3566 0V7.44393H0V81H94V7.44393H80.6434V0H78.1233V7.44393H64.3887V0H61.8686V7.44393H48.2601V0H45.7399V7.44393H32.1314V0H29.6113V7.44393H15.8767V0H13.3566ZM29.4853 9.96729V16.1495H32.0054V9.96729H45.7399V16.1495H48.2601V9.96729H61.8686V16.1495H64.3887V9.96729H78.1233V16.1495H80.6434V9.96729H91.6059V78.4766H2.52011V9.96729H13.4826V16.1495H16.0027V9.96729H29.4853Z" fill="#FCB64F"/>
<path d="M41.7078 31.2898H34.7775V33.8132H41.7078V31.2898Z" fill="#FCB64F"/>
<path d="M24.067 31.2898H17.1367V33.8132H24.067V31.2898Z" fill="#FCB64F"/>
<path d="M59.2225 31.2898H52.2922V33.8132H59.2225V31.2898Z" fill="#FCB64F"/>
<path d="M76.8633 31.2898H69.933V33.8132H76.8633V31.2898Z" fill="#FCB64F"/>
<path d="M41.7078 46.0514H34.7775V48.5748H41.7078V46.0514Z" fill="#FCB64F"/>
<path d="M24.067 46.0514H17.1367V48.5748H24.067V46.0514Z" fill="#FCB64F"/>
<path d="M59.2225 46.0514H52.2922V48.5748H59.2225V46.0514Z" fill="#FCB64F"/>
<path d="M76.8633 46.0514H69.933V48.5748H76.8633V46.0514Z" fill="#FCB64F"/>
<path d="M41.7078 60.8131H34.7775V63.3365H41.7078V60.8131Z" fill="#FCB64F"/>
<path d="M24.067 60.8131H17.1367V63.3365H24.067V60.8131Z" fill="#FCB64F"/>
<path d="M59.2225 60.8131H52.2922V63.3365H59.2225V60.8131Z" fill="#FCB64F"/>
<path d="M76.8633 60.8131H69.933V63.3365H76.8633V60.8131Z" fill="#FCB64F"/>
</svg>
