<svg width="67" height="56" viewBox="0 0 67 56" fill="none" xmlns="http://www.w3.org/2000/svg">
<path d="M47.3304 46.0124C49.1408 47.393 51.2707 48.2426 53.5071 48.455C54.0396 48.455 54.572 48.3488 54.998 48.2426C58.7253 47.2868 60.5357 42.614 60.6422 42.4016C60.8552 41.9768 60.6422 41.4458 60.3227 41.2334C60.1098 41.1272 56.2759 38.0474 52.5486 39.0032C48.8213 39.959 47.0109 44.6318 46.9044 44.8442C46.9044 45.1628 47.0109 45.6938 47.3304 46.0124ZM53.1876 41.021C55.1045 40.49 57.3409 41.6582 58.4058 42.4016C57.8734 43.5698 56.4889 45.6938 54.572 46.1186C53.2941 46.331 51.9097 46.1186 50.8447 45.5876L54.6785 44.6318C55.211 44.5256 55.637 43.8884 55.424 43.3574C55.3175 42.8264 54.6785 42.4016 54.1461 42.614L50.2058 43.5698C50.8447 42.4016 51.9097 41.4458 53.1876 41.021Z" fill="#FCB64F" stroke="#FCB64F" stroke-width="0.5"/>
<path d="M28.3743 12.0282C28.4808 12.2406 31.2497 16.9135 35.5095 17.3383C35.7225 17.3383 35.9355 17.3383 36.1484 17.3383C40.0887 17.3383 43.3901 13.6213 43.6031 13.5151C43.9225 13.1964 43.9225 12.6654 43.7096 12.2406C43.6031 12.0282 40.7277 7.3554 36.5744 6.93059C32.4211 6.50579 28.6938 10.5414 28.4808 10.7538C28.2678 11.0724 28.1613 11.6034 28.3743 12.0282ZM36.3614 9.05461C38.7043 9.26701 40.6212 11.4972 41.4732 12.6654C40.3017 13.7275 37.9588 15.4267 35.829 15.2143C34.2315 14.8957 32.8471 14.0461 31.7822 12.7716L36.5744 13.3026H36.6809C37.3199 13.3026 37.7459 12.8778 37.7459 12.2406C37.7459 11.7096 37.3199 11.2848 36.7874 11.1786L31.8887 10.5414C33.0601 9.58562 34.764 9.05461 36.3614 9.05461Z" fill="#FCB64F" stroke="#FCB64F" stroke-width="0.5"/>
<path d="M56.5954 15.639H59.7902C62.3461 15.639 64.3695 17.6568 64.3695 20.2057C64.3695 22.7545 62.3461 24.7723 59.7902 24.7723H10.1638C9.52479 24.7723 9.09882 25.1971 9.09882 25.8343C9.09882 26.4715 9.52479 26.8963 10.1638 26.8963H59.7902C61.6006 26.8963 63.3045 26.1529 64.5825 24.8785C67.2448 22.2235 67.2448 17.9755 64.5825 15.3204C63.3045 14.046 61.6006 13.3026 59.7902 13.3026H56.5954C55.9564 13.3026 55.5304 13.7274 55.5304 14.3646C55.5304 15.0018 56.0629 15.639 56.5954 15.639Z" fill="#FCB64F" stroke="#FCB64F" stroke-width="0.5"/>
<path d="M6.75599 31.5692C6.11702 31.5692 5.69104 31.994 5.69104 32.6312C5.69104 33.2684 6.11702 33.6932 6.75599 33.6932H20.8133C21.4522 33.6932 21.8782 33.2684 21.8782 32.6312C21.8782 31.994 21.4522 31.5692 20.8133 31.5692H6.75599Z" fill="#FCB64F" stroke="#FCB64F" stroke-width="0.5"/>
<path d="M1.64423 37.9413H37.0004C39.8758 37.9413 42.2187 40.2777 42.2187 43.1452C42.2187 46.0126 39.8758 48.349 37.0004 48.349H32.3147C31.6757 48.349 31.2497 47.9242 31.2497 47.287C31.2497 46.6498 31.6757 46.225 32.3147 46.225H37.0004C38.7043 46.225 40.0888 44.8444 40.0888 43.1452C40.0888 41.4459 38.7043 40.0653 37.0004 40.0653H1.64423C1.00526 40.0653 0.579285 39.6405 0.579285 39.0033C0.579285 38.3661 1.00526 37.9413 1.64423 37.9413Z" fill="#FCB64F" stroke="#FCB64F" stroke-width="0.5"/>
<path d="M43.4966 31.5692H28.3744C27.7354 31.5692 27.3094 31.994 27.3094 32.6312C27.3094 33.2684 27.7354 33.6932 28.3744 33.6932H43.6031C44.2421 33.6932 44.6681 33.2684 44.6681 32.6312C44.6681 31.994 44.1356 31.5692 43.4966 31.5692Z" fill="#FCB64F" stroke="#FCB64F" stroke-width="0.5"/>
<path d="M3.88062 21.9049H19.7483C20.3873 21.9049 20.8133 21.4801 20.8133 20.8429C20.8133 20.2057 20.3873 19.7809 19.7483 19.7809H3.88062C3.24165 19.7809 2.81567 20.2057 2.81567 20.8429C2.81567 21.4801 3.34815 21.9049 3.88062 21.9049Z" fill="#FCB64F" stroke="#FCB64F" stroke-width="0.5"/>
</svg>
