<svg width="86" height="70" viewBox="0 0 86 70" fill="none" xmlns="http://www.w3.org/2000/svg">
<g clip-path="url(#clip0)">
<path d="M37.8 0.0378418C37.3 0.137842 37 0.537842 37 1.03784V10.0378H30C29.9 10.0378 29.9 10.0378 29.8 10.0378C29.3 10.1378 29 10.5378 29 11.0378V18.0378H7C3.1 18.0378 0 21.1378 0 25.0378V63.0378C0 66.9378 3.1 70.0378 7 70.0378H79C82.9 70.0378 86 66.9378 86 63.0378V25.0378C86 21.1378 82.9 18.0378 79 18.0378H57V11.0378C57 10.4378 56.6 10.0378 56 10.0378H49V1.03784C49 0.437842 48.6 0.0378418 48 0.0378418H38C37.9 0.0378418 37.9 0.0378418 37.8 0.0378418ZM39 2.03784H47V10.0378H39V2.03784ZM31 12.0378H55V22.0378H31V12.0378ZM7 20.0378H29V23.0378C29 23.6378 29.4 24.0378 30 24.0378H56C56.6 24.0378 57 23.6378 57 23.0378V20.0378H79C81.8 20.0378 84 22.2378 84 25.0378V63.0378C84 65.8378 81.8 68.0378 79 68.0378H7C4.2 68.0378 2 65.8378 2 63.0378V25.0378C2 22.2378 4.2 20.0378 7 20.0378ZM8.9 30.0378C8.4 30.0378 8 30.5378 8 31.0378V57.0378C8 57.6378 8.4 58.0378 9 58.0378H33C33.6 58.0378 34 57.6378 34 57.0378V31.0378C34 30.4378 33.6 30.0378 33 30.0378H8.9C9 30.0378 9 30.0378 8.9 30.0378ZM40.8 30.0378C40.2 30.1378 39.8 30.5378 39.9 31.1378C40 31.7378 40.4 32.1378 41 32.0378H61C61.6 32.0378 62 31.6378 62 31.0378C62 30.4378 61.6 30.0378 61 30.0378H41C40.9 30.0378 40.9 30.0378 40.8 30.0378ZM10 32.0378H32V56.0378H10V32.0378ZM40.8 38.0378C40.2 38.1378 39.8 38.5378 39.9 39.1378C40 39.7378 40.4 40.1378 41 40.0378H77C77.6 40.0378 78 39.6378 78 39.0378C78 38.4378 77.6 38.0378 77 38.0378H41C40.9 38.0378 40.9 38.0378 40.8 38.0378ZM40.8 46.0378C40.2 46.1378 39.8 46.5378 39.9 47.1378C40 47.7378 40.4 48.1378 41 48.0378H77C77.6 48.0378 78 47.6378 78 47.0378C78 46.4378 77.6 46.0378 77 46.0378H41C40.9 46.0378 40.9 46.0378 40.8 46.0378ZM54.8 54.0378C54.2 54.1378 53.8 54.5378 53.9 55.1378C54 55.7378 54.4 56.1378 55 56.0378H57C57.6 56.0378 58 55.6378 58 55.0378C58 54.4378 57.6 54.0378 57 54.0378H55C54.9 54.0378 54.9 54.0378 54.8 54.0378ZM64.8 54.0378C64.2 54.1378 63.8 54.5378 63.9 55.1378C64 55.7378 64.4 56.1378 65 56.0378H67C67.6 56.0378 68 55.6378 68 55.0378C68 54.4378 67.6 54.0378 67 54.0378H65C64.9 54.0378 64.9 54.0378 64.8 54.0378ZM74.8 54.0378C74.2 54.1378 73.8 54.5378 73.9 55.1378C74 55.7378 74.4 56.1378 75 56.0378H77C77.6 56.0378 78 55.6378 78 55.0378C78 54.4378 77.6 54.0378 77 54.0378H75C74.9 54.0378 74.9 54.0378 74.8 54.0378Z" fill="#FCB64F"/>
<path d="M8.9 30.0378C8.4 30.0378 8 30.5378 8 31.0378V57.0378C8 57.6378 8.4 58.0378 9 58.0378H33C33.6 58.0378 34 57.6378 34 57.0378V31.0378C34 30.4378 33.6 30.0378 33 30.0378H8.9ZM8.9 30.0378C9 30.0378 9 30.0378 8.9 30.0378ZM37.8 0.0378418C37.3 0.137842 37 0.537842 37 1.03784V10.0378H30C29.9 10.0378 29.9 10.0378 29.8 10.0378C29.3 10.1378 29 10.5378 29 11.0378V18.0378H7C3.1 18.0378 0 21.1378 0 25.0378V63.0378C0 66.9378 3.1 70.0378 7 70.0378H79C82.9 70.0378 86 66.9378 86 63.0378V25.0378C86 21.1378 82.9 18.0378 79 18.0378H57V11.0378C57 10.4378 56.6 10.0378 56 10.0378H49V1.03784C49 0.437842 48.6 0.0378418 48 0.0378418H38C37.9 0.0378418 37.9 0.0378418 37.8 0.0378418ZM39 2.03784H47V10.0378H39V2.03784ZM31 12.0378H55V22.0378H31V12.0378ZM7 20.0378H29V23.0378C29 23.6378 29.4 24.0378 30 24.0378H56C56.6 24.0378 57 23.6378 57 23.0378V20.0378H79C81.8 20.0378 84 22.2378 84 25.0378V63.0378C84 65.8378 81.8 68.0378 79 68.0378H7C4.2 68.0378 2 65.8378 2 63.0378V25.0378C2 22.2378 4.2 20.0378 7 20.0378ZM40.8 30.0378C40.2 30.1378 39.8 30.5378 39.9 31.1378C40 31.7378 40.4 32.1378 41 32.0378H61C61.6 32.0378 62 31.6378 62 31.0378C62 30.4378 61.6 30.0378 61 30.0378H41C40.9 30.0378 40.9 30.0378 40.8 30.0378ZM10 32.0378H32V56.0378H10V32.0378ZM40.8 38.0378C40.2 38.1378 39.8 38.5378 39.9 39.1378C40 39.7378 40.4 40.1378 41 40.0378H77C77.6 40.0378 78 39.6378 78 39.0378C78 38.4378 77.6 38.0378 77 38.0378H41C40.9 38.0378 40.9 38.0378 40.8 38.0378ZM40.8 46.0378C40.2 46.1378 39.8 46.5378 39.9 47.1378C40 47.7378 40.4 48.1378 41 48.0378H77C77.6 48.0378 78 47.6378 78 47.0378C78 46.4378 77.6 46.0378 77 46.0378H41C40.9 46.0378 40.9 46.0378 40.8 46.0378ZM54.8 54.0378C54.2 54.1378 53.8 54.5378 53.9 55.1378C54 55.7378 54.4 56.1378 55 56.0378H57C57.6 56.0378 58 55.6378 58 55.0378C58 54.4378 57.6 54.0378 57 54.0378H55C54.9 54.0378 54.9 54.0378 54.8 54.0378ZM64.8 54.0378C64.2 54.1378 63.8 54.5378 63.9 55.1378C64 55.7378 64.4 56.1378 65 56.0378H67C67.6 56.0378 68 55.6378 68 55.0378C68 54.4378 67.6 54.0378 67 54.0378H65C64.9 54.0378 64.9 54.0378 64.8 54.0378ZM74.8 54.0378C74.2 54.1378 73.8 54.5378 73.9 55.1378C74 55.7378 74.4 56.1378 75 56.0378H77C77.6 56.0378 78 55.6378 78 55.0378C78 54.4378 77.6 54.0378 77 54.0378H75C74.9 54.0378 74.9 54.0378 74.8 54.0378Z" stroke="#FCB64F"/>
</g>
<defs>
<clipPath id="clip0">
<rect width="86" height="70" fill="white"/>
</clipPath>
</defs>
</svg>
