<svg width="67" height="56" viewBox="0 0 67 56" fill="none" xmlns="http://www.w3.org/2000/svg">
<path d="M33.7934 16.0761C25.4193 16.0761 18.3576 22.2947 17.2327 30.441L8.85863 30.441C8.1712 30.441 7.60876 31.0007 7.60876 31.6847C7.60876 32.3688 8.1712 32.9285 8.85863 32.9285L18.4201 32.9285L14.9829 36.3487C14.483 36.8462 14.483 37.5924 14.9829 38.0899C15.4829 38.5874 16.2328 38.5874 16.7328 38.0899L21.9197 32.9285L31.1062 32.9285L26.4192 41.0126L19.42 42.8782C18.7325 43.0648 18.3576 43.7488 18.5451 44.3707C18.7325 45.0547 19.42 45.4278 20.0449 45.2413L24.6694 43.9975L21.1698 50.154C20.7948 50.7758 21.0448 51.522 21.6072 51.833C22.1697 52.2061 22.9821 52.0195 23.2945 51.3977L26.7941 45.3656L28.044 49.9674C28.2315 50.6514 28.9189 51.0246 29.5438 50.838C30.1063 50.7136 30.4812 50.2161 30.4812 49.6565C30.4812 49.5321 30.4812 49.4699 30.4187 49.3455L28.5439 42.3185L33.2934 34.11L38.5428 43.1269L36.7305 50.0918C36.5431 50.7758 36.918 51.3977 37.6054 51.5842C38.2929 51.7708 38.9803 51.3977 39.1053 50.7136L40.2926 46.1741L43.3548 51.3977C43.7298 52.0195 44.4797 52.2061 45.0421 51.833C45.4171 51.5842 45.6671 51.2111 45.6671 50.7758C45.6671 50.5893 45.6046 50.3405 45.4796 50.154L42.4174 44.8682L47.1044 46.1119C47.7918 46.2984 48.4792 45.8631 48.6042 45.2413C48.6042 45.1169 48.6667 45.0547 48.6667 44.9303C48.6667 44.3707 48.2918 43.8732 47.7293 43.7488L40.6051 41.8832L35.4182 32.9285L45.2921 32.9285L50.479 38.0899C50.979 38.5874 51.7289 38.5874 52.2288 38.0899C52.4788 37.8411 52.6038 37.5302 52.6038 37.2193C52.6038 36.9084 52.4788 36.5974 52.2288 36.3487L48.7917 32.9285L58.6031 32.9285C59.2905 32.9285 59.853 32.3688 59.853 31.6847C59.853 31.0007 59.2905 30.441 58.6031 30.441L50.354 30.441C49.2292 22.2947 42.1049 16.0761 33.7934 16.0761ZM19.7324 30.3167C20.9198 23.6628 26.7941 18.5635 33.7934 18.5635C40.7301 18.5635 46.6669 23.6006 47.8543 30.3166L19.7324 30.3167Z" fill="#FCB64F"/>
<path d="M32.106 5.38009L32.106 12.8424C32.106 13.5264 32.6685 14.0861 33.3559 14.0861C34.0433 14.0861 34.6057 13.5264 34.6057 12.8424L34.6057 5.38009C34.6057 4.69605 34.0433 4.13637 33.3559 4.13637C32.6685 4.13637 32.106 4.69605 32.106 5.38009Z" fill="#FCB64F"/>
<path d="M47.2919 8.55165L43.5423 15.019C43.1673 15.6409 43.4173 16.3871 43.9798 16.698C44.6047 17.0711 45.3546 16.8224 45.6671 16.2627L49.4167 9.79537C49.5416 9.60881 49.6041 9.36007 49.6041 9.17351C49.6041 8.73821 49.3542 8.30291 48.9792 8.11635C48.4168 7.74324 47.6668 7.92979 47.2919 8.55165Z" fill="#FCB64F"/>
<path d="M52.3538 22.6056C51.7289 22.9787 51.5414 23.725 51.9164 24.2846C52.2913 24.9065 53.0413 25.0931 53.6037 24.7199L60.103 20.9888C60.4779 20.74 60.7279 20.3669 60.7279 19.9316C60.7279 19.7451 60.6654 19.4963 60.5404 19.3098C60.1655 18.6879 59.4156 18.5014 58.8531 18.8745L52.3538 22.6056Z" fill="#FCB64F"/>
<path d="M23.4821 16.0139C23.4821 15.8273 23.4196 15.5785 23.2946 15.392L19.545 8.92466C19.17 8.3028 18.4201 8.11625 17.8577 8.48936C17.2328 8.86248 17.0453 9.6087 17.4202 10.1684L21.1698 16.6357C21.5448 17.2576 22.2947 17.4441 22.8571 17.071C23.2321 16.8845 23.4821 16.4492 23.4821 16.0139Z" fill="#FCB64F"/>
<path d="M15.2329 24.9687C15.3579 24.7821 15.4204 24.5334 15.4204 24.3468C15.4204 23.9115 15.1704 23.4762 14.7955 23.2897L8.29621 19.5585C7.67128 19.1854 6.92136 19.4341 6.60889 19.9938C6.23393 20.6157 6.48391 21.3619 7.04635 21.6728L13.5456 25.404C14.1081 25.7149 14.9205 25.5284 15.2329 24.9687Z" fill="#FCB64F"/>
</svg>
