<svg width="48" height="48" viewBox="0 0 48 48" fill="none" xmlns="http://www.w3.org/2000/svg">
<path d="M44.208 25.1519C43.392 24.0959 41.952 23.8559 40.416 24.4799C40.032 24.6239 39.456 24.8639 38.784 25.1519L41.568 17.5199C41.808 16.8479 41.76 16.1279 41.472 15.5039C41.184 14.8799 40.656 14.3999 39.984 14.1599C39.504 13.9679 38.976 13.9679 38.496 14.1119L38.832 13.1519C39.072 12.4799 39.024 11.7599 38.736 11.1359C38.448 10.5119 37.92 10.0319 37.248 9.79191C35.904 9.31191 34.416 10.0319 33.936 11.3279C33.648 10.9439 33.216 10.6079 32.736 10.4159C31.392 9.93591 29.904 10.6559 29.376 11.9999L28.896 13.3439C28.608 12.9599 28.176 12.6239 27.696 12.4799C26.352 11.9999 24.864 12.7199 24.336 14.1119L22.8 18.4319L22.08 16.6079C21.84 15.9359 21.312 15.4079 20.688 15.1199C20.064 14.8319 19.392 14.8319 18.768 15.0719C18.288 15.2639 17.904 15.5999 17.616 15.9839L17.088 14.6879C16.848 14.0159 16.32 13.4879 15.696 13.1999C15.072 12.9119 14.4 12.9119 13.776 13.1519C13.296 13.3439 12.912 13.6799 12.624 14.0639C12.336 13.4399 11.856 12.9599 11.232 12.6719C10.608 12.3839 9.936 12.3839 9.312 12.6239C8.016 13.1519 7.344 14.6879 7.872 16.0319L8.256 16.9919C7.776 16.8959 7.296 16.8959 6.816 17.0879C5.52 17.6159 4.848 19.1519 5.376 20.4959L8.784 29.1359L6.72 27.8879C6.144 27.5039 5.472 27.3119 4.848 27.4079C4.176 27.5039 3.552 27.8879 3.168 28.4639C2.352 29.6159 2.64 31.2479 3.744 32.1119C4.176 32.5439 9.744 36.9599 11.76 38.3999C13.248 39.4559 15.072 40.0319 16.896 40.0319C18.096 40.0319 19.344 39.7919 20.544 39.3119C22.416 38.5439 24 37.2479 25.056 35.5199C25.632 35.9039 26.256 36.1919 26.928 36.4319C28.032 36.8159 29.184 37.0079 30.336 37.0079C32.352 37.0079 34.272 36.3839 35.904 35.1839C37.92 33.6959 43.44 29.0879 43.776 28.7999C44.88 27.9359 45.072 26.2559 44.208 25.1519ZM20.064 38.2079C17.424 39.2639 14.592 38.9759 12.384 37.4399C10.416 35.9999 4.656 31.3919 4.608 31.3439C3.984 30.8639 3.84 29.9519 4.272 29.2799C4.464 28.9919 4.8 28.7519 5.184 28.7039C5.568 28.6559 5.904 28.7519 6.192 28.9439C6.192 28.9439 6.24 28.9439 6.24 28.9919L9.84 31.1519C10.032 31.2959 10.32 31.2479 10.512 31.1039C10.704 30.9599 10.752 30.6719 10.656 30.4319L6.576 20.1599C6.288 19.3919 6.624 18.5759 7.344 18.2879C7.632 18.1919 7.968 18.1919 8.304 18.3359C8.64 18.4799 8.928 18.7679 9.12 19.1039L11.28 24.6719C11.376 24.9119 11.616 25.0559 11.808 25.0559C11.856 25.0559 11.952 25.0559 12 25.0079C12.288 24.9119 12.432 24.5279 12.336 24.2399L10.224 18.8639V18.8159C10.224 18.7679 10.176 18.7199 10.176 18.6719L9.024 15.6959C8.736 14.9279 9.072 14.1119 9.792 13.8239C10.128 13.6799 10.512 13.6799 10.848 13.8239C11.184 13.9679 11.472 14.2559 11.616 14.6399L12.384 16.6559L14.88 23.1359C14.976 23.3759 15.216 23.5199 15.408 23.5199C15.456 23.5199 15.552 23.5199 15.6 23.4719C15.888 23.3759 16.032 22.9919 15.936 22.7039L13.536 16.4159L13.488 16.2719C13.2 15.5039 13.536 14.6879 14.256 14.3999C14.592 14.2559 14.976 14.2559 15.312 14.3999C15.648 14.5439 15.936 14.8319 16.08 15.2159L17.376 18.4799C17.376 18.5279 17.376 18.5279 17.424 18.5759L19.152 23.1359C19.248 23.4239 19.632 23.5679 19.92 23.4719C20.208 23.3759 20.352 22.9919 20.256 22.7039L18.48 18.1439C18.192 17.3759 18.528 16.5599 19.248 16.2719C19.584 16.1279 19.968 16.1279 20.304 16.2719C20.64 16.4159 20.928 16.7039 21.072 17.0879L24.912 27.0719C26.496 31.5839 24.384 36.4799 20.064 38.2079ZM43.008 27.8879C42.96 27.9359 37.152 32.7359 35.184 34.2239C33.024 35.8559 30.048 36.2399 27.36 35.2799C26.784 35.0879 26.208 34.7999 25.68 34.4639C25.728 34.3679 25.776 34.2719 25.824 34.1279C26.832 31.7759 26.928 29.1359 26.064 26.6879L23.52 20.1599L25.488 14.5439C25.776 13.7759 26.592 13.3919 27.312 13.6319C27.648 13.7759 27.936 14.0159 28.128 14.3519C28.272 14.6879 28.32 15.1199 28.176 15.4559L26.448 20.3519C26.352 20.6399 26.496 20.9759 26.784 21.1199C26.832 21.1199 26.928 21.1679 26.976 21.1679C27.216 21.1679 27.456 21.0239 27.552 20.7839L29.28 15.8879C29.28 15.8399 29.28 15.8399 29.328 15.7919L30.528 12.4799C30.816 11.7119 31.632 11.3279 32.352 11.5679C32.688 11.7119 32.976 11.9519 33.168 12.2879C33.312 12.6239 33.36 13.0559 33.216 13.4399L33.168 13.5839L30.768 20.5439C30.672 20.8319 30.816 21.1679 31.152 21.3119C31.2 21.3119 31.296 21.3599 31.344 21.3599C31.584 21.3599 31.824 21.2159 31.92 20.9759L34.416 13.8719L35.136 11.8559C35.424 11.0879 36.24 10.7039 36.96 10.9439C37.296 11.0879 37.584 11.3279 37.776 11.6639C37.92 11.9999 37.968 12.4319 37.824 12.7679L36.768 15.6479C36.72 15.7439 36.72 15.7919 36.672 15.8879C36.672 15.9359 36.672 15.9839 36.624 15.9839L34.464 21.9359C34.368 22.2239 34.512 22.5599 34.8 22.7039C34.848 22.7039 34.944 22.7519 34.992 22.7519C35.232 22.7519 35.472 22.6079 35.568 22.3679L37.824 16.1279C38.16 15.4559 38.976 15.0719 39.6 15.3119C39.936 15.4559 40.224 15.6959 40.416 16.0319C40.56 16.3679 40.608 16.7999 40.464 17.1359L37.296 25.7279C36.768 25.9199 36.288 26.1119 36.048 26.2079C33.024 25.0559 31.392 26.3999 30.048 27.4559C29.808 27.6479 29.76 28.0319 29.952 28.2719C30.144 28.5119 30.528 28.5599 30.768 28.3679C32.064 27.3119 33.264 26.3039 35.808 27.3599C35.952 27.4079 36.096 27.4079 36.24 27.3599C36.384 27.3119 39.696 26.0159 40.848 25.5359C41.472 25.2959 42.624 24.9599 43.248 25.8239C43.776 26.4959 43.632 27.4079 43.008 27.8879Z" fill="#333333"/>
<path d="M10.272 8.59193L13.248 10.5119C13.344 10.5599 13.44 10.6079 13.584 10.6079C13.776 10.6079 13.968 10.5119 14.064 10.3199C14.256 10.0319 14.16 9.69593 13.872 9.50393L10.896 7.58393C10.608 7.39193 10.272 7.48793 10.08 7.77593C9.88799 8.06393 9.98399 8.39993 10.272 8.59193Z" fill="#333333"/>
<path d="M17.28 8.11197C17.376 8.35197 17.568 8.49597 17.856 8.49597C17.904 8.49597 18 8.49597 18.048 8.44797C18.336 8.35197 18.528 8.01597 18.432 7.67997L16.8 2.92797C16.704 2.63997 16.368 2.44797 16.032 2.54397C15.744 2.63997 15.552 2.97597 15.648 3.31197L17.28 8.11197Z" fill="#333333"/>
<path d="M22.464 7.68002C22.512 7.72802 22.608 7.72802 22.656 7.72802C22.896 7.72802 23.136 7.58402 23.184 7.34402L24.384 4.03202C24.48 3.74402 24.336 3.40802 24.048 3.26402C23.76 3.16802 23.424 3.31202 23.28 3.60002L22.08 6.91202C21.984 7.24802 22.176 7.58402 22.464 7.68002Z" fill="#333333"/>
<path d="M26.688 40.8C26.4 40.704 26.064 40.896 25.968 41.184L24.96 44.544C24.864 44.832 25.056 45.168 25.344 45.264C25.392 45.264 25.44 45.312 25.536 45.312C25.776 45.312 26.016 45.168 26.112 44.88L27.12 41.52C27.168 41.232 27.024 40.896 26.688 40.8Z" fill="#333333"/>
<path d="M31.68 39.9359C31.536 39.6479 31.2 39.5039 30.912 39.5999C30.624 39.7439 30.48 40.0799 30.576 40.3679L32.496 45.0239C32.592 45.2639 32.832 45.4079 33.024 45.4079C33.12 45.4079 33.168 45.4079 33.264 45.3599C33.552 45.2159 33.696 44.8799 33.6 44.5919L31.68 39.9359Z" fill="#333333"/>
<path d="M38.688 38.784L35.616 37.056C35.328 36.912 34.992 37.008 34.8 37.296C34.656 37.584 34.752 37.92 35.04 38.112L38.112 39.84C38.208 39.888 38.304 39.936 38.4 39.936C38.592 39.936 38.784 39.84 38.928 39.648C39.072 39.312 38.976 38.976 38.688 38.784Z" fill="#333333"/>
</svg>
