<svg width="48" height="44" viewBox="0 0 48 44" fill="none" xmlns="http://www.w3.org/2000/svg">
<path d="M0.890625 42.7697C0.890625 43.1542 1.20177 43.4653 1.58628 43.4653C27.791 43.4653 36.2694 43.4653 46.4137 43.4653C46.7982 43.4653 47.1094 43.1542 47.1094 42.7697C47.1094 42.3852 46.7982 42.074 46.4137 42.074H36.9667V17.3873L38.9715 16.2337C39.5544 15.8954 39.9164 15.2649 39.9164 14.5883C39.9164 14.2873 39.8431 13.9884 39.7092 13.733C39.2588 12.8424 38.1896 12.4538 37.2779 12.8492L36.9667 12.9821V7.05976C36.9667 6.67525 36.6556 6.36411 36.2711 6.36411C35.8866 6.36411 35.5754 6.67525 35.5754 7.05976V13.5766L32.7466 14.7853L21.5802 9.44631C21.5557 9.43476 21.5313 9.42457 21.5061 9.41642C20.4542 9.05501 19.3536 9.40984 18.6964 10.2225C18.3755 8.98707 17.6959 8.06244 16.7181 7.58286C13.8615 6.17774 10.6065 9.0862 9.1644 12.0244C7.35733 15.7072 7.84443 19.5251 10.2724 20.7167C10.7541 20.9531 11.2711 21.0659 11.8043 21.0659C13.1526 21.0659 14.6044 20.3454 15.8573 19.0828C15.327 21.8349 15.288 24.2434 16.2308 25.5733C12.3273 35.2155 12.062 35.8673 11.7133 36.7248L10.5224 39.6617C10.1971 40.5103 10.3962 41.4302 10.9607 42.074H1.58628C1.20177 42.074 0.890625 42.3852 0.890625 42.7697ZM35.5754 42.074H26.921C27.3397 41.6719 27.6018 41.1481 27.6549 40.5985L28.788 30.2751C28.8825 29.4823 28.6196 28.6943 28.0693 28.1162L23.6909 23.4531C23.4674 23.2174 23.3702 22.8668 23.4361 22.5421L24.5741 17.0523L31.3254 19.4898C31.9762 19.8295 32.7602 19.8145 33.3838 19.449L35.5754 18.1879L35.5754 42.074ZM20.6678 10.6671C20.7847 10.6671 20.9029 10.6841 21.0204 10.7208L32.43 16.1766C32.6114 16.2629 32.82 16.267 33.0034 16.1888C33.1325 16.1337 37.8973 14.0978 37.8274 14.1277C38.0686 14.0231 38.3492 14.1257 38.4722 14.3689C38.5068 14.4354 38.5251 14.5108 38.5251 14.5883C38.5251 14.7738 38.4307 14.9388 38.2751 15.0285L32.6848 18.2459C32.4633 18.3757 32.1828 18.3763 31.9504 18.2466C31.9171 18.2276 31.8825 18.2119 31.8465 18.199L24.2921 15.4714C24.1019 15.4035 23.8934 15.4205 23.716 15.5183C23.5401 15.6168 23.4158 15.7867 23.3743 15.9843L22.0727 22.2629C21.9158 23.0394 22.1427 23.8417 22.6787 24.4076L27.0584 29.072C27.3247 29.3519 27.4518 29.7303 27.4056 30.1161L26.2711 40.4558C26.2425 40.7534 26.0795 40.9612 25.9599 41.0727C25.5713 41.4157 24.9395 41.3906 24.587 41.0122C24.3981 40.8091 24.305 40.5441 24.3247 40.269L24.9647 31.8233C24.981 31.6046 24.8933 31.3913 24.7283 31.2466L21.0198 28.0123C21.0173 28.0101 21.0161 28.0069 21.0136 28.0047L17.5007 24.9424C15.4768 23.0503 18.589 14.0786 19.5802 11.4239C19.7561 10.9551 20.195 10.6671 20.6678 10.6671ZM10.8852 19.468C9.21536 18.6481 8.99932 15.5197 10.413 12.6372C11.5087 10.4058 14.0924 7.84479 16.1053 8.8315C16.8716 9.20786 17.3621 10.0856 17.4864 11.3043C17.9254 15.6285 13.592 20.7934 10.8852 19.468ZM11.8166 40.1719L13.0027 37.2486C13.3444 36.4069 13.6039 35.7697 17.3076 26.6205L19.6944 28.7022L13.6291 40.9334C13.3906 41.4232 12.8342 41.627 12.3383 41.4103C11.8607 41.1984 11.6338 40.6488 11.8166 40.1719ZM14.877 41.5482L20.7781 29.6474L23.551 32.0659L22.9375 40.1671C22.8906 40.8254 23.1209 41.4789 23.5693 41.9606C23.6088 42.0031 23.657 42.0348 23.6993 42.074H14.5241C14.661 41.9179 14.7816 41.7436 14.877 41.5482Z" fill="#333333"/>
<path d="M24.0543 9.31318C26.4749 9.31318 28.4436 7.34443 28.4436 4.92392C28.4436 2.5034 26.4749 0.534653 24.0543 0.534653C21.6338 0.534653 19.6651 2.5034 19.6651 4.92392C19.6651 7.34443 21.6338 9.31318 24.0543 9.31318ZM24.0543 1.92595C25.7072 1.92595 27.0523 3.27106 27.0523 4.92391C27.0523 6.57677 25.7072 7.92187 24.0543 7.92187C22.4015 7.92187 21.0564 6.57677 21.0564 4.92391C21.0564 3.27106 22.4015 1.92595 24.0543 1.92595Z" fill="#333333"/>
</svg>
