<svg width="96" height="75" viewBox="0 0 96 75" fill="none" xmlns="http://www.w3.org/2000/svg">
<g clip-path="url(#clip0)">
<path d="M61.1868 66.6879C61.0909 66.6879 60.995 66.6879 60.8991 66.6879C54.3776 64.9682 47.7602 64.2994 41.047 64.6816C39.5125 64.7771 37.978 64.8727 36.4436 65.0637C33.4705 65.3504 30.4975 65.637 27.4286 65.5414C22.2498 65.3504 17.0709 63.344 13.8102 60.2867L1.05494 48.1529C-0.287714 46.9109 -0.287714 44.809 0.959039 43.5669C4.12387 40.3185 9.3027 40.223 12.5634 43.3758L17.6464 48.1529C18.1259 48.5351 18.1259 49.2994 17.6464 49.6816C17.2627 50.1593 16.4955 50.1593 16.1119 49.6816L11.029 44.9045C8.72727 42.6115 4.89111 42.6115 2.58941 45C2.20579 45.3822 2.20579 46.1465 2.58941 46.5287L15.3447 58.6625C18.2218 61.3376 22.8252 63.0574 27.5245 63.2484C30.4016 63.344 33.3746 63.0574 36.2517 62.8663C37.7862 62.7707 39.3207 62.5797 40.8551 62.4841C47.7602 62.102 54.7612 62.7707 61.4745 64.586C62.0499 64.7771 62.4336 65.3504 62.2418 65.9236C62.1459 66.4013 61.6663 66.6879 61.1868 66.6879Z" fill="#FCB64F" stroke="#FCB64F" stroke-width="0.5"/>
<path d="M25.5105 55.7962C22.6334 55.7962 20.3317 53.5032 20.3317 50.637C20.3317 49.2994 20.9071 47.9618 21.8661 47.0064C22.8252 46.051 24.1678 45.4778 25.5105 45.4778H29.3467C32.7992 45.4778 36.0599 44.809 39.2248 43.4714L39.8002 43.1848C41.9101 42.3249 44.1159 41.3695 46.4176 40.7962C52.8432 39.172 63.009 40.4141 70.2018 49.2994C70.5854 49.7771 70.4895 50.4459 70.01 50.8281C69.5305 51.2102 68.8591 51.1147 68.4755 50.637C62.3377 43.0892 53.2268 41.3695 46.8971 42.8981C44.6913 43.4714 42.7732 44.3313 40.6633 45.1911L40.0879 45.4778C36.6354 46.9109 33.0869 47.6752 29.3467 47.6752H25.5105C24.7433 47.6752 23.976 47.9618 23.4006 48.5351C22.8252 49.1083 22.5375 49.8727 22.5375 50.637C22.5375 52.2612 23.8801 53.5988 25.5105 53.5988H29.9221C32.4156 53.5988 35.005 53.3122 37.4985 52.8344L45.6503 51.1147C46.2258 51.0192 46.8012 51.4013 46.993 51.9746C47.0889 52.5478 46.7053 53.1211 46.1299 53.3122L37.978 55.0319C35.3886 55.6051 32.7033 55.8918 30.018 55.8918L25.5105 55.7962Z" fill="#FCB64F" stroke="#FCB64F" stroke-width="0.5"/>
<path d="M94.9451 75.0001H62.2418C60.8991 75.0001 59.6524 74.3313 58.981 73.1848C58.3097 72.0383 58.2138 70.6052 58.8851 69.4587L71.3527 45.5733C72.024 44.3313 73.2707 43.4714 74.7093 43.4714H94.9451C95.5205 43.4714 96 43.9491 96 44.5224C96 45.0956 95.5205 45.5733 94.9451 45.5733H74.7093C74.1339 45.5733 73.5585 45.9555 73.2707 46.4332L60.8032 70.3186C60.5155 70.8918 60.5155 71.4651 60.8032 72.0383C61.0909 72.516 61.5704 72.8026 62.2418 72.8026H94.9451C95.5205 72.8026 96 73.2804 96 73.8536C96 74.5224 95.5205 75.0001 94.9451 75.0001Z" fill="#FCB64F" stroke="#FCB64F" stroke-width="0.5"/>
<path d="M69.7223 31.5287H1.15085V0H54.7612V10.5096C54.7612 11.0828 54.2817 11.5605 53.7063 11.5605C53.1309 11.5605 52.6514 11.0828 52.6514 10.5096V2.10191H3.35664V29.2357H69.7223C70.2977 29.2357 70.7772 29.7134 70.7772 30.2866C70.7772 30.8599 70.2977 31.5287 69.7223 31.5287Z" fill="#FCB64F" stroke="#FCB64F" stroke-width="0.5"/>
<path d="M20.3317 24.4586C20.044 24.4586 19.7562 24.3631 19.5644 24.172C14.8651 19.4905 14.8651 11.9427 19.5644 7.35669C19.9481 6.97453 20.7153 6.97453 21.0989 7.35669C21.4825 7.73886 21.4825 8.50319 21.0989 8.88536C17.2627 12.707 17.2627 18.8217 21.0989 22.6433C21.4825 23.0255 21.4825 23.7898 21.0989 24.172C20.9071 24.3631 20.6194 24.4586 20.3317 24.4586Z" fill="#FCB64F" stroke="#FCB64F" stroke-width="0.5"/>
<path d="M35.6763 24.4586C35.3886 24.4586 35.1009 24.3631 34.9091 24.172C34.5255 23.7898 34.5255 23.0255 34.9091 22.6433C36.7313 20.828 37.7862 18.344 37.7862 15.7643C37.7862 13.1847 36.7313 10.7006 34.9091 8.88536C34.5255 8.50319 34.5255 7.73886 34.9091 7.35669C35.2927 6.97453 36.0599 6.97453 36.4436 7.35669C38.7453 9.64969 39.8961 12.6115 39.8961 15.7643C39.8961 18.9172 38.6494 21.9745 36.4436 24.172C36.2518 24.3631 35.964 24.4586 35.6763 24.4586Z" fill="#FCB64F" stroke="#FCB64F" stroke-width="0.5"/>
<path d="M45.4585 18.1529C46.4119 18.1529 47.1848 17.3829 47.1848 16.4331C47.1848 15.4833 46.4119 14.7134 45.4585 14.7134C44.5052 14.7134 43.7323 15.4833 43.7323 16.4331C43.7323 17.3829 44.5052 18.1529 45.4585 18.1529Z" fill="#FCB64F" stroke="#FCB64F" stroke-width="0.5"/>
<path d="M10.4536 18.1529C11.4069 18.1529 12.1798 17.3829 12.1798 16.4331C12.1798 15.4833 11.4069 14.7134 10.4536 14.7134C9.50016 14.7134 8.72728 15.4833 8.72728 16.4331C8.72728 17.3829 9.50016 18.1529 10.4536 18.1529Z" fill="#FCB64F" stroke="#FCB64F" stroke-width="0.5"/>
<path d="M28.004 22.7389C25.7023 22.7389 23.8801 20.9236 23.8801 18.6306C23.8801 18.0574 24.3596 17.5796 24.9351 17.5796C25.5105 17.5796 25.99 18.0574 25.99 18.6306C25.99 19.6816 26.8532 20.5414 27.9081 20.5414C28.963 20.5414 29.8262 19.6816 29.8262 18.6306C29.8262 17.8663 29.4426 17.293 27.6204 16.7198C25.1269 15.9554 23.8801 14.5223 23.8801 12.707C23.8801 10.414 25.7023 8.59875 28.004 8.59875C30.3057 8.59875 32.1279 10.414 32.1279 12.707C32.1279 13.2803 31.6484 13.758 31.0729 13.758C30.4975 13.758 30.018 13.2803 30.018 12.707C30.018 11.6561 29.1549 10.7962 28.0999 10.7962C27.045 10.7962 26.1818 11.6561 26.1818 12.707C26.1818 13.2803 26.4695 14.0446 28.3876 14.6179C29.5385 15 32.1279 15.8599 32.1279 18.6306C32.032 20.9236 30.2098 22.7389 28.004 22.7389Z" fill="#FCB64F" stroke="#FCB64F" stroke-width="0.5"/>
<path d="M28.004 10.8917C27.4286 10.8917 26.9491 10.414 26.9491 9.84077V8.12102C26.9491 7.54778 27.4286 7.07007 28.004 7.07007C28.5794 7.07007 29.0589 7.54778 29.0589 8.12102V9.74523C29.0589 10.3185 28.5794 10.8917 28.004 10.8917Z" fill="#FCB64F" stroke="#FCB64F" stroke-width="0.5"/>
<path d="M28.004 24.4586C27.4286 24.4586 26.9491 23.9809 26.9491 23.4077V21.6879C26.9491 21.1147 27.4286 20.637 28.004 20.637C28.5794 20.637 29.0589 21.1147 29.0589 21.6879V23.4077C29.0589 23.9809 28.5794 24.4586 28.004 24.4586Z" fill="#FCB64F" stroke="#FCB64F" stroke-width="0.5"/>
<path d="M65.7902 24.4586H53.7063C53.1309 24.4586 52.6514 23.9809 52.6514 23.4076C52.6514 22.8344 53.1309 22.3567 53.7063 22.3567H65.7902C66.3656 22.3567 66.8452 22.8344 66.8452 23.4076C66.8452 23.9809 66.3656 24.4586 65.7902 24.4586Z" fill="#FCB64F" stroke="#FCB64F" stroke-width="0.5"/>
<path d="M61.1868 16.9109H53.7063C53.1309 16.9109 52.6514 16.4332 52.6514 15.8599C52.6514 15.2867 53.1309 14.809 53.7063 14.809H61.1868C61.7622 14.809 62.2418 15.2867 62.2418 15.8599C62.2418 16.4332 61.7622 16.9109 61.1868 16.9109Z" fill="#FCB64F" stroke="#FCB64F" stroke-width="0.5"/>
</g>
<defs>
<clipPath id="clip0">
<rect width="96" height="75" fill="white"/>
</clipPath>
</defs>
</svg>
