<svg width="121" height="72" viewBox="0 0 121 72" fill="none" xmlns="http://www.w3.org/2000/svg">
<g clip-path="url(#clip0)">
<path d="M60.0956 8.67734V18.0718H57.6574V8.67734H55.1474V6.59766H62.5338V8.67734H60.0956Z" fill="#3D3D3E"/>
<path d="M69.8486 18.1435C68.8446 18.1435 68.4861 17.4263 68.4861 16.4224V14.5578C68.4861 13.9841 68.1992 13.4104 67.4821 13.4104H66.1912V18.0718H63.753V6.59766H67.9124C69.7769 6.59766 70.9243 7.67335 70.9243 9.32276V10.5419C70.9243 11.4742 70.494 12.1913 69.4183 12.4781C70.4223 12.6933 70.9243 13.5538 70.9243 14.3427V16.2072C70.9243 16.7092 71.0677 17.0678 71.4263 17.3546V18.0718H69.8486V18.1435ZM68.4143 9.46618C68.4143 8.89248 68.1992 8.53391 67.5538 8.53391H66.1912V11.6893H67.4821C68.1275 11.6893 68.4861 11.3307 68.4861 10.6853V9.46618H68.4143Z" fill="#3D3D3E"/>
<path d="M72.502 18.0718V6.59766H78.8844V8.67734H74.9402V11.1873H77.6653V13.0518H74.9402V15.9204H78.8844V18.0718H72.502Z" fill="#3D3D3E"/>
<path d="M80.1753 18.0718V6.59766H86.5578V8.67734H82.6135V11.1873H85.3386V13.0518H82.6135V15.9204H86.5578V18.0718H80.1753Z" fill="#3D3D3E"/>
<path d="M55.7928 36V24.5259H62.1752V26.6056H58.231V29.1155H60.9561V30.9801H58.231V33.8486H62.1752V36H55.7928Z" fill="#3D3D3E"/>
<path d="M70.494 36.2868C69.9203 36.2868 69.3466 36 69.0597 35.7131C68.5578 36.0717 67.9123 36.2868 66.9801 36.2868C64.757 36.2868 63.3227 34.7808 63.3227 32.8446V27.6812C63.3227 25.745 64.6852 24.239 67.1235 24.239C69.49 24.239 70.9243 25.745 70.9243 27.6812V32.9163C70.9243 33.4183 70.8526 33.8486 70.6374 34.2071C70.8526 34.4223 71.0677 34.494 71.7131 34.494V36.0717C71.3546 36.1434 71.0677 36.2868 70.494 36.2868ZM68.4143 27.4661C68.4143 26.8207 67.984 26.247 67.1235 26.247C66.3346 26.247 65.8327 26.8207 65.8327 27.4661V32.988C65.8327 33.6334 66.2629 34.2071 67.1235 34.2071C67.4103 34.2071 67.6255 34.1354 67.8406 34.0637L67.3386 33.6334L68.4143 32.6295V27.4661Z" fill="#3D3D3E"/>
<path d="M76.3028 36.2868C74.1514 36.2868 72.5737 34.996 72.5737 33.0597V24.5259H75.0836V32.988C75.0836 33.7769 75.5139 34.2072 76.3745 34.2072C77.235 34.2072 77.6653 33.7769 77.6653 32.988V24.5259H80.0318V33.0597C80.0318 34.9243 78.5259 36.2868 76.3028 36.2868Z" fill="#3D3D3E"/>
<path d="M81.6096 36V24.5259H84.0478V36H81.6096Z" fill="#3D3D3E"/>
<path d="M90.1434 26.6056V36H87.7052V26.6056H85.1952V24.5259H92.5816V26.6056H90.1434Z" fill="#3D3D3E"/>
<path d="M98.749 31.1954V35.9284H96.3107V31.1954L93.3705 24.4543H95.9522L97.6733 28.9723L99.3227 24.4543H101.761L98.749 31.1954Z" fill="#3D3D3E"/>
<path d="M59.0916 54.2153C56.8685 54.2153 55.4343 52.9245 55.4343 50.9882V50.4145H57.6574V50.7731C57.6574 51.7053 58.1594 52.279 59.0199 52.279C59.8805 52.279 60.3108 51.777 60.3108 50.9882C60.3108 50.1276 59.6653 49.6974 58.3028 48.9802C56.9402 48.2631 55.4343 47.3308 55.4343 45.538C55.4343 43.7452 56.7251 42.1675 59.0199 42.1675C61.0996 42.1675 62.5339 43.6017 62.5339 45.3946V45.8249H60.3108V45.4663C60.3108 44.6774 59.8805 44.1037 59.0199 44.1037C58.3028 44.1037 57.8008 44.534 57.8008 45.2511C57.8008 46.04 58.4462 46.542 59.9522 47.2591C61.5299 48.1197 62.6773 49.0519 62.6773 50.7013C62.749 52.5659 61.3865 54.2153 59.0916 54.2153Z" fill="#3D3D3E"/>
<path d="M67.8406 54.2151C65.4023 54.2151 63.9681 52.6374 63.9681 50.7012V45.753C63.9681 43.745 65.4023 42.239 67.8406 42.239C70.2071 42.239 71.4262 43.6733 71.4262 45.6095V46.6135H69.2031V45.5378C69.2031 44.749 68.7729 44.247 67.8406 44.247C66.9083 44.247 66.478 44.749 66.478 45.5378V50.9163C66.478 51.6334 66.9083 52.2071 67.8406 52.2071C68.7729 52.2071 69.2031 51.7051 69.2031 50.9163V49.8406H71.4262V50.988C71.4262 52.7808 70.2071 54.2151 67.8406 54.2151Z" fill="#3D3D3E"/>
<path d="M76.4462 54.2153C74.0796 54.2153 72.6454 52.781 72.6454 50.7013V45.6814C72.6454 43.6735 74.0796 42.1675 76.4462 42.1675C78.8127 42.1675 80.247 43.6017 80.247 45.6814V50.7013C80.247 52.7093 78.8127 54.2153 76.4462 54.2153ZM77.737 45.538C77.737 44.7492 77.3067 44.2472 76.4462 44.2472C75.6573 44.2472 75.1553 44.7492 75.1553 45.538V50.8448C75.1553 51.6336 75.5856 52.1356 76.4462 52.1356C77.3067 52.1356 77.737 51.6336 77.737 50.8448V45.538Z" fill="#3D3D3E"/>
<path d="M87.8486 54.0002C86.8446 54.0002 86.486 53.283 86.486 52.279V50.4145C86.486 49.8408 86.1991 49.2671 85.482 49.2671H84.1912V53.9284H81.7529V42.4543H85.9123C87.7768 42.4543 88.9242 43.53 88.9242 45.1794V46.3986C88.9242 47.3308 88.494 48.048 87.4183 48.3348C88.4223 48.55 88.9242 49.4105 88.9242 50.1994V52.0639C88.9242 52.5659 89.0677 52.9245 89.4262 53.2113V53.9284H87.8486V54.0002ZM86.4143 45.3229C86.4143 44.7492 86.1991 44.3906 85.5537 44.3906H84.1912V47.546H85.482C86.1274 47.546 86.486 47.1874 86.486 46.542V45.3229H86.4143Z" fill="#3D3D3E"/>
<path d="M90.502 53.9284V42.4543H96.8844V44.534H92.9402V47.044H95.6653V48.9085H92.9402V51.7771H96.8844V53.9284H90.502Z" fill="#3D3D3E"/>
<path d="M60.6693 71.8564L60.1673 69.5616H57.8008L57.2988 71.8564H55.004L57.6574 60.3823H60.3824L63.0358 71.8564H60.6693ZM59.0199 63.5377L58.1593 67.6971H59.8805L59.0199 63.5377Z" fill="#5EB546"/>
<path d="M69.992 71.8564L67.4103 67.2668L66.4063 65.4022V71.8564H64.1832V60.3823H66.2629L68.7012 65.1154L69.6334 66.9799V60.3823H71.8565V71.8564H69.992Z" fill="#5EB546"/>
<path d="M78.5976 71.8564L78.0956 69.5616H75.7291L75.2271 71.8564H72.9323L75.5856 60.3823H78.3107L80.9641 71.8564H78.5976ZM76.9482 63.5377L76.0876 67.6971H77.8087L76.9482 63.5377Z" fill="#5EB546"/>
<path d="M82.1832 71.8564V60.3823H84.6215V69.705H88.4223V71.8564H82.1832Z" fill="#5EB546"/>
<path d="M93.0119 67.0521V71.7851H90.5737V67.0521L87.6334 60.311H90.2151L91.9362 64.829L93.5856 60.311H96.0239L93.0119 67.0521Z" fill="#5EB546"/>
<path d="M99.753 69.7055H103.841V71.8569H96.6693V71.1397L100.972 62.3907H96.8845V60.311H103.912V61.0282L99.753 69.7055Z" fill="#5EB546"/>
<path d="M105.275 71.8564V60.3823H111.657V62.462H107.713V64.972H110.438V66.8365H107.713V69.705H111.657V71.8564H105.275Z" fill="#5EB546"/>
<path d="M119.116 71.9281C118.112 71.9281 117.753 71.211 117.753 70.207V68.3425C117.753 67.7688 117.466 67.1951 116.749 67.1951H115.458V71.8564H113.02V60.3823H117.179C119.044 60.3823 120.191 61.458 120.191 63.1074V64.3265C120.191 65.2588 119.761 65.976 118.685 66.2628C119.689 66.4779 120.191 67.3385 120.191 68.1273V69.9919C120.191 70.4939 120.335 70.8524 120.693 71.1393V71.8564H119.116V71.9281ZM117.681 63.2508C117.681 62.6771 117.466 62.3186 116.821 62.3186H115.458V65.474H116.749C117.394 65.474 117.753 65.1154 117.753 64.47V63.2508H117.681Z" fill="#5EB546"/>
<path d="M22.0159 61.0278C22.0159 61.0278 21.9442 66.6932 22.733 71.1394" stroke="#3D3D3E" stroke-width="2.4535" stroke-miterlimit="10" stroke-linecap="round"/>
<path d="M6.81272 13.1235C7.17128 12.765 21.729 26.1753 21.729 26.1753L21.8725 60.3108L19.7928 58.7331L16.3506 52.7809L14.7012 50.5578L11.0438 48.9084L10.0398 46.1833L7.74499 44.4622L7.60156 42.1673L11.9044 42.0239L15.7051 42.9562L18.0717 42.8128L13.3386 38.5817L10.5418 37.8646L6.741 37.0757L5.59359 33.7052L0.645386 24.9562L3.01192 22.5897L11.4024 25.8167L7.09957 19.1474L6.81272 13.1235Z" fill="#F79131"/>
<path d="M21.9442 38.0797L45.753 19.9363L46.6135 21.8008L40.2311 34.2789L29.1872 38.1514L27.251 41.4502C27.251 41.4502 35.1394 40.8765 35.2829 40.9482C35.4263 41.0917 35.4263 42.2391 35.4263 42.2391L34.1354 44.749L32.4143 46.9721L29.0438 48.9801L27.251 54.6454L24.3107 58.8765L21.9442 60.8845V38.0797Z" fill="#98C558"/>
<path d="M45.0358 19.3625L45.4661 20.1514L21.8008 38.5099C21.8008 38.5099 21.5139 1.14738 21.8008 1.07567C22.0876 1.00395 24.741 2.72507 24.741 2.72507L26.749 7.02786L27.3944 10.4701L28.8287 9.17925L32.2709 6.741L36.1434 7.45814L36.9322 12.0478L35.8565 17.5697L33.0597 21.1553L32.5577 22.9482L34.5657 23.0916L43.5299 19.1474L45.0358 19.3625Z" fill="#5EB546"/>
<path d="M21.1554 0.645508L21.8725 1.86463L21.5857 26.1754L7.38647 13.0519L7.24304 11.9045L8.96416 10.1116L15.6335 12.0479L15.9203 11.0439L15.7769 6.81284L16.996 2.86862L19.2191 1.07579L21.1554 0.645508Z" fill="#FCB64F"/>
<path d="M22.5896 60.5976C20.7251 58.6613 19.0757 56.2948 17.9283 53.9283C17.3546 52.7809 16.9243 51.5617 16.0637 50.5578C15.2749 49.6255 14.1275 49.2669 12.9801 48.8366C12.4064 48.6215 11.8327 48.4781 11.4741 47.9044C11.1155 47.3307 11.0438 46.6852 10.6853 46.1115C10.255 45.5378 9.68127 45.1075 9.10756 44.6773C8.82071 44.3904 8.03187 43.8167 8.24701 43.3147C8.46215 42.8844 9.89641 43.0996 10.3267 43.0996C11.1872 43.0996 12.0478 43.1713 12.8366 43.3147C14.4143 43.6016 15.8486 44.0318 17.3546 44.6056C17.7849 44.749 18.3586 44.3904 18.4303 43.9601C18.6454 42.9562 18.6454 41.8087 17.9283 41.0199C17.1394 40.1593 16.0637 39.9442 15.2032 39.2271C14.1275 38.2948 13.2669 37.5777 11.9044 37.2908C10.6135 37.004 9.25099 37.0757 8.03187 36.4303C7.52988 36.2151 7.02788 35.7848 6.88446 35.2828C6.66932 34.5657 6.95617 33.7769 6.74103 33.0597C6.38246 31.6972 5.01992 30.9083 4.15936 29.9044C3.15537 28.757 2.43824 27.4661 2.00796 26.0319C1.86454 25.4581 1.57768 24.5976 2.15139 24.1673C2.58167 23.8087 3.2988 23.737 3.80079 23.737C7.24302 23.5936 9.46613 27.1075 12.7649 27.6813C13.6255 27.8247 14.2709 26.8924 13.6255 26.1753C12.8366 25.243 12.1195 24.1673 11.3307 23.235C10.6135 22.3028 9.8247 21.5139 9.17928 20.5817C8.53386 19.6494 7.88844 18.5737 7.6733 17.4263C7.45816 16.3506 7.6733 15.2749 7.81673 14.1992C7.88844 13.3386 8.03187 12.2629 8.67729 11.5458C9.3227 10.9004 10.1833 11.0438 10.9721 11.3307C12.6932 11.9761 14.1275 13.2669 16.0637 13.1235C16.6374 13.0518 17.0677 12.6215 16.9243 11.9761C16.494 10.0398 16.4223 8.17528 16.8526 6.23902C17.2829 4.44619 18.0717 2.22309 20.0797 1.86452C21.8008 1.57767 23.6653 2.72508 24.5976 4.15934C25.8167 6.02388 26.1036 8.39042 26.3187 10.5418C26.3904 11.3307 27.251 11.6892 27.8247 11.1872C28.9004 10.3267 29.9761 9.46611 31.0518 8.67727C31.7689 8.17528 32.4143 7.67329 33.3466 7.60157C34.4223 7.52986 35.2829 7.96014 35.498 9.03584C35.7849 10.1832 35.7131 11.5458 35.6414 12.6932C35.5697 13.984 35.4263 15.2032 34.996 16.4223C34.5657 17.6414 33.9203 18.7171 33.2032 19.7928C32.5578 20.7251 31.7689 21.5856 31.2669 22.5896C31.0518 23.0916 31.1952 23.8087 31.7689 23.8805C34.7809 24.4542 37.1474 22.733 39.6574 21.3705C40.8765 20.7251 42.3825 20.0079 43.745 20.2948C44.3187 20.3665 45.1076 20.6534 45.3944 21.2988C45.6813 21.9442 45.1793 22.5179 44.8207 22.9482C43.8884 24.0956 42.9562 25.0279 42.741 26.5338C42.5976 27.3944 42.741 28.1832 42.0956 28.9004C41.5219 29.5458 41.0916 30.0478 40.8765 30.8366C40.6614 31.6255 40.5179 32.2709 39.9442 32.9163C39.4422 33.4183 38.7968 33.8486 38.1514 34.1354C36.5737 34.9243 34.9243 35.3546 33.2749 35.8566C31.4821 36.3585 29.6892 36.8605 28.255 38.0079C26.9641 39.0119 25.8167 40.5896 26.8207 42.239C26.9641 42.4542 27.3227 42.741 27.6096 42.6693C29.3307 42.4542 31.0518 42.3107 32.7729 42.0956C33.4183 42.0239 34.1355 41.8087 34.7809 41.9522C34.9243 41.9522 35.0677 42.0239 35.1394 42.0956C35.1394 41.8087 35.0677 41.737 34.9243 42.0239C34.7092 42.0956 34.494 42.3824 34.3506 42.5259C33.49 43.4581 33.49 44.749 32.8446 45.753C32.1992 46.6852 30.9801 46.9721 30.0478 47.4741C28.9721 48.0478 28.1833 48.7649 27.6813 49.8406C27.1793 51.1315 26.9641 52.5657 26.3904 53.8566C25.243 56.5099 23.5219 58.8048 21.2988 60.5976C20.4382 61.3147 21.6574 62.6056 22.5896 61.8884C24.4542 60.3107 26.1036 58.3745 27.251 56.1514C27.8247 55.0757 28.3267 53.9283 28.6853 52.7809C29.0438 51.7052 29.1155 50.2709 30.0478 49.4821C30.8366 48.8366 31.8406 48.5498 32.7012 48.0478C33.5617 47.5458 34.2789 46.8287 34.7092 45.8964C34.9243 45.3944 35.0677 44.8924 35.2112 44.3904C35.4263 43.745 35.7849 43.5299 36.2868 43.0996C37.004 42.3824 37.1474 41.3068 36.2868 40.6613C35.2829 39.8725 33.9203 40.1593 32.7729 40.2311C31.0518 40.4462 29.3307 40.5896 27.6096 40.8048C27.8964 40.9482 28.1115 41.0916 28.3984 41.235C27.6096 39.8725 30.4781 38.5816 31.4104 38.2231C33.2032 37.5777 35.1394 37.1474 36.9323 36.4303C38.3665 35.9283 39.8008 35.3546 40.9482 34.3506C41.4502 33.9203 41.8805 33.3466 42.239 32.7012C42.5976 31.9123 42.5976 30.9801 43.243 30.3346C43.8167 29.7609 44.3187 29.2589 44.4621 28.4701C44.6773 27.6813 44.5339 26.749 44.8207 25.9601C45.3944 24.6693 46.8287 23.8805 47.259 22.4462C47.6892 21.0836 47.0438 19.7928 45.8964 19.0757C44.6056 18.2868 42.9562 18.2868 41.5219 18.6454C39.8725 19.0757 38.4382 20.0079 36.9323 20.8685C35.498 21.6573 33.992 22.4462 32.3426 22.0876C32.486 22.5179 32.7012 22.9482 32.8446 23.3785C33.49 22.0876 34.5657 21.0119 35.2829 19.7928C36 18.5737 36.6454 17.2828 37.004 15.9203C37.4343 14.4143 37.506 12.7649 37.4343 11.1872C37.3625 9.89639 37.4343 8.3187 36.6454 7.24301C35.3546 5.30675 32.486 5.45018 30.6932 6.59759C29.259 7.52986 27.8247 8.67727 26.4621 9.75297C26.9641 9.96811 27.4661 10.1832 27.9681 10.3984C27.6813 7.745 27.3227 4.87647 25.6733 2.65337C24.3108 0.860538 22.0159 -0.430299 19.7211 -1.98036e-05C17.2112 0.430259 15.7769 2.72508 15.1315 4.94819C14.4143 7.45815 14.4861 9.82468 14.988 12.3346C15.2749 11.9761 15.5617 11.5458 15.8486 11.1872C13.6255 11.4024 11.9761 9.25098 9.75298 9.17926C7.31474 9.03584 6.16733 11.2589 5.88047 13.3386C5.73705 14.5577 5.52191 15.7769 5.59362 16.996C5.73705 18.2868 6.23904 19.506 6.95617 20.5817C7.6733 21.7291 8.53386 22.6613 9.39442 23.737C10.3984 24.8844 11.1872 26.1753 12.1912 27.3227C12.4781 26.8207 12.7649 26.3187 13.0518 25.8167C10.0398 25.3864 7.88844 22.1593 4.58964 21.9442C3.37051 21.8725 1.93625 22.0159 0.932266 22.8765C-0.215145 23.8805 -0.0717184 25.3147 0.286847 26.6773C0.788839 28.1832 1.50597 29.5458 2.50995 30.7649C3.01195 31.3386 3.51394 31.8406 4.08764 32.3426C4.80478 32.988 5.09163 33.49 5.09163 34.494C5.01992 35.9283 5.59362 37.004 6.81274 37.7928C8.03187 38.5816 9.46613 38.7251 10.9004 38.9402C11.6892 39.0836 12.5498 39.2271 13.2669 39.7291C13.8406 40.1593 14.3426 40.733 14.9163 41.0916C15.49 41.4502 16.1355 41.5936 16.6374 42.0239C16.7092 42.0956 16.7809 42.239 16.9243 42.3107C17.0677 42.4542 16.996 42.3825 16.9243 42.239C16.8526 42.0239 16.7809 42.0239 16.8526 42.1673C16.8526 42.239 16.9243 42.5259 16.9243 42.5259C16.996 42.8127 16.9243 43.1713 16.9243 43.4581C17.2829 43.243 17.6414 43.0279 18 42.8127C15.4183 41.8087 12.6932 41.235 9.89641 41.1633C8.749 41.1633 7.38645 41.235 6.88446 42.3824C6.45418 43.3147 6.81274 44.5338 7.52988 45.251C7.88844 45.6813 8.39043 45.9681 8.82071 46.3267C9.39442 46.8287 9.60956 47.3307 9.89641 48.0478C10.3267 49.1235 11.0438 49.8406 12.1195 50.2709C13.1952 50.7012 14.2709 50.8446 15.0598 51.7769C15.7769 52.7091 16.1355 53.8566 16.6374 54.8605C17.8566 57.2988 19.5777 59.737 21.4422 61.6733C22.1594 62.6773 23.3785 61.4581 22.5896 60.5976Z" fill="#3D3D3E"/>
<path d="M35.2112 29.0438L46.0398 20.5099C45.753 20.1514 45.251 19.8645 44.749 19.6494L34.2789 27.8964L22.6614 36.8605V33.49L22.5896 1.43425C22.0877 1.21911 21.514 1.07568 21.012 1.07568V24.8844L10.8287 15.1315L7.52989 12.0478C7.31475 12.5498 7.17132 13.1235 7.09961 13.6972L9.82471 16.2072L21.0837 26.9641V33.5617L21.2988 60.239C21.5857 60.5976 21.8725 60.8845 22.1594 61.1713C22.4462 60.9562 22.6614 60.741 22.9482 60.4542L22.6614 38.7251L35.2112 29.0438Z" fill="#171717"/>
<path d="M46.1116 20.4381C45.8247 20.0795 45.3227 19.721 44.749 19.5775H44.6773L34.2072 27.8246L22.7331 36.717V33.5616L22.6614 1.43412V1.36241H22.5896C22.0159 1.14727 21.5139 1.00384 20.9402 0.932129H20.8685V24.6692L10.9004 15.0596L7.45817 11.8325L7.38646 11.976C7.17132 12.4062 7.02789 12.9799 6.95618 13.6254V13.6971L9.68128 16.2787L20.9402 27.0357V33.5616L21.1554 60.2389C21.5139 60.5975 21.7291 60.8843 22.0159 61.1712L22.0877 61.2429L22.1594 61.1712C22.3745 60.956 22.6614 60.7409 22.8765 60.5258L22.9482 60.454L22.8048 38.7967L35.2829 29.1154L46.1116 20.5815V20.4381Z" fill="#3D3D3E"/>
</g>
<defs>
<clipPath id="clip0">
<rect width="120.55" height="72" fill="white"/>
</clipPath>
</defs>
</svg>
