<svg width="83" height="90" viewBox="0 0 83 90" fill="none" xmlns="http://www.w3.org/2000/svg">
<g clip-path="url(#clip0)">
<path d="M14.2 34.9C15.1 34 16.4 33.4 17.7 33.4H21.8C23.1 33.4 24.4 33.9 25.3 34.9C25.9 35.5 26.3 36.3 26.5 37.2H28.6C28.4 35.8 27.8 34.5 26.7 33.5C25.4 32.2 23.6 31.4 21.7 31.4H17.6C15.7 31.4 13.9 32.2 12.6 33.5C11.6 34.5 10.9 35.8 10.7 37.2H12.8C13.1 36.3 13.5 35.5 14.2 34.9Z" fill="#FCB64F" stroke="#FCB64F" stroke-width="0.5"/>
<path d="M19.7 29C22.4 29 24.6 26.8 24.6 24.1C24.6 21.4 22.4 19.2 19.7 19.2C17 19.2 14.8 21.4 14.8 24.1C14.8 26.8 17 29 19.7 29ZM19.7 21.2C21.3 21.2 22.6 22.5 22.6 24.1C22.6 25.7 21.3 27 19.7 27C18.1 27 16.8 25.7 16.8 24.1C16.9 22.5 18.1 21.2 19.7 21.2Z" fill="#FCB64F" stroke="#FCB64F" stroke-width="0.5"/>
<path d="M35.7 34.8999C36.6 33.9999 37.9 33.3999 39.2 33.3999H43.3C44.6 33.3999 45.9 33.8999 46.8 34.8999C47.4 35.4999 47.8 36.2999 48 37.1999H50.1C49.9 35.7999 49.3 34.4999 48.2 33.4999C46.9 32.1999 45.1 31.3999 43.2 31.3999H39.1C37.2 31.3999 35.4 32.1999 34.1 33.4999C33.1 34.4999 32.4 35.7999 32.2 37.1999H34.3C34.7 36.2999 35.1 35.4999 35.7 34.8999Z" fill="#FCB64F" stroke="#FCB64F" stroke-width="0.5"/>
<path d="M41.3 29C44 29 46.2 26.8 46.2 24.1C46.2 21.4 44 19.2 41.3 19.2C38.6 19.2 36.4 21.4 36.4 24.1C36.4 26.8 38.6 29 41.3 29ZM41.3 21.2C42.9 21.2 44.2 22.5 44.2 24.1C44.2 25.7 42.9 27 41.3 27C39.7 27 38.4 25.7 38.4 24.1C38.4 22.5 39.7 21.2 41.3 21.2Z" fill="#FCB64F" stroke="#FCB64F" stroke-width="0.5"/>
<path d="M57.3 34.8999C58.2 33.9999 59.5 33.3999 60.8 33.3999H64.9C66.2 33.3999 67.5 33.8999 68.4 34.8999C69 35.4999 69.4 36.2999 69.6 37.1999H71.7C71.5 35.7999 70.9 34.4999 69.8 33.4999C68.5 32.1999 66.7 31.3999 64.8 31.3999H60.7C58.8 31.3999 57 32.1999 55.7 33.4999C54.7 34.4999 54 35.7999 53.8 37.1999H56C56.2 36.2999 56.6 35.4999 57.3 34.8999Z" fill="#FCB64F" stroke="#FCB64F" stroke-width="0.5"/>
<path d="M62.8 29C65.5 29 67.7 26.8 67.7 24.1C67.7 21.4 65.5 19.2 62.8 19.2C60.1 19.2 57.9 21.4 57.9 24.1C57.9 26.8 60.1 29 62.8 29ZM62.8 21.2C64.4 21.2 65.7 22.5 65.7 24.1C65.7 25.7 64.4 27 62.8 27C61.2 27 60 25.7 60 24.1C60 22.5 61.2 21.2 62.8 21.2Z" fill="#FCB64F" stroke="#FCB64F" stroke-width="0.5"/>
<path d="M24.9 15.7C25.8 14.8 27.1 14.2 28.4 14.2H32.5C33.8 14.2 35.1 14.7 36 15.7C36.6 16.3 37 17.1 37.2 18H39.3C39.1 16.6 38.5 15.3 37.4 14.3C36.1 13 34.3 12.2 32.4 12.2H28.3C26.4 12.2 24.6 13 23.3 14.3C22.3 15.3 21.6 16.6 21.4 18H23.5C23.9 17.1 24.3 16.3 24.9 15.7Z" fill="#FCB64F" stroke="#FCB64F" stroke-width="0.5"/>
<path d="M30.5 9.8C33.2 9.8 35.4 7.6 35.4 4.9C35.4 2.2 33.2 0 30.5 0C27.8 0 25.6 2.2 25.6 4.9C25.6 7.6 27.8 9.8 30.5 9.8ZM30.5 2C32.1 2 33.4 3.3 33.4 4.9C33.4 6.5 32.1 7.8 30.5 7.8C28.9 7.8 27.6 6.5 27.6 4.9C27.6 3.3 28.9 2 30.5 2Z" fill="#FCB64F" stroke="#FCB64F" stroke-width="0.5"/>
<path d="M46.5 15.7C47.4 14.8 48.7 14.2 50 14.2H54.1C55.4 14.2 56.7 14.7 57.6 15.7C58.2 16.3 58.6 17.1 58.8 18H60.9C60.7 16.6 60.1 15.3 59 14.3C57.7 13 55.9 12.2 54 12.2H50C48.1 12.2 46.3 13 45 14.3C44 15.3 43.3 16.6 43.1 18H45.2C45.4 17.1 45.9 16.3 46.5 15.7Z" fill="#FCB64F" stroke="#FCB64F" stroke-width="0.5"/>
<path d="M52.1 9.8C54.8 9.8 57 7.6 57 4.9C57 2.2 54.8 0 52.1 0C49.4 0 47.2 2.2 47.2 4.9C47.2 7.6 49.3 9.8 52.1 9.8ZM52.1 2C53.7 2 55 3.3 55 4.9C55 6.5 53.7 7.8 52.1 7.8C50.5 7.8 49.2 6.5 49.2 4.9C49.2 3.3 50.5 2 52.1 2Z" fill="#FCB64F" stroke="#FCB64F" stroke-width="0.5"/>
<path d="M9.00001 39.5C6.30001 39.5 4.10001 41.7 4.10001 44.4C4.10001 47.1 6.30001 49.3 9.00001 49.3C11.7 49.3 13.9 47.1 13.9 44.4C13.9 41.7 11.7 39.5 9.00001 39.5ZM9.00001 47.3C7.40001 47.3 6.10001 46 6.10001 44.4C6.10001 42.8 7.40001 41.5 9.00001 41.5C10.6 41.5 11.9 42.8 11.9 44.4C11.9 46 10.5 47.3 9.00001 47.3Z" fill="#FCB64F" stroke="#FCB64F" stroke-width="0.5"/>
<path d="M30.5 39.5C27.8 39.5 25.6 41.7 25.6 44.4C25.6 47.1 27.8 49.3 30.5 49.3C33.2 49.3 35.4 47.1 35.4 44.4C35.4 41.7 33.2 39.5 30.5 39.5ZM30.5 47.3C28.9 47.3 27.6 46 27.6 44.4C27.6 42.8 28.9 41.5 30.5 41.5C32.1 41.5 33.4 42.8 33.4 44.4C33.4 46 32.1 47.3 30.5 47.3Z" fill="#FCB64F" stroke="#FCB64F" stroke-width="0.5"/>
<path d="M52.1 39.5C49.4 39.5 47.2 41.7 47.2 44.4C47.2 47.1 49.4 49.3 52.1 49.3C54.8 49.3 57 47.1 57 44.4C57 41.7 54.8 39.5 52.1 39.5ZM52.1 47.3C50.5 47.3 49.2 46 49.2 44.4C49.2 42.8 50.5 41.5 52.1 41.5C53.7 41.5 55 42.8 55 44.4C55 46 53.6 47.3 52.1 47.3Z" fill="#FCB64F" stroke="#FCB64F" stroke-width="0.5"/>
<path d="M11 51.7H6.9C5 51.7 3.2 52.4999 1.9 53.7999C0.7 54.9999 0 56.7 0 58.5V68.4C0 70.1 0.7 71.7999 1.9 73.0999L2.5 73.6999C3.6 74.6999 4.1 76.0999 4.1 77.5999V90H6.1V77.5999C6.1 75.5999 5.3 73.6999 3.9 72.1999L3.3 71.5999C2.4 70.7999 2 69.6 2 68.4V58.5C2 57.3 2.5 56.1 3.3 55.2C4.2 54.3 5.5 53.7 6.8 53.7H11C12.3 53.7 13.6 54.2 14.5 55.2C15.4 56.1 15.8 57.2 15.8 58.5V68.4C15.8 69.6 15.3 70.7999 14.5 71.5999L13.9 72.1999C12.5 73.5999 11.7 75.4999 11.7 77.5999V90H13.7V77.5999C13.7 76.0999 14.3 74.6999 15.3 73.6999L16 73C17.2 71.7999 17.9 70.1 17.9 68.3V58.4C17.9 56.6 17.2 54.9 16 53.7C14.7 52.5 12.8 51.7 11 51.7Z" fill="#FCB64F" stroke="#FCB64F" stroke-width="0.5"/>
<path d="M32.5 51.7H28.4C26.5 51.7 24.7 52.4999 23.4 53.7999C22.1 55.0999 21.5 56.7 21.5 58.5V68.4C21.5 70.1 22.2 71.7999 23.4 73.0999L24 73.6999C25.1 74.6999 25.6 76.0999 25.6 77.5999V90H27.6V77.5999C27.6 75.5999 26.8 73.6999 25.4 72.1999L24.8 71.5999C23.9 70.6999 23.5 69.6 23.5 68.4V58.5C23.5 57.3 24 56.1 24.8 55.2C25.7 54.3 27 53.7 28.3 53.7H32.4C33.7 53.7 35 54.2 35.9 55.2C36.8 56.1 37.2 57.2 37.2 58.5V68.4C37.2 69.6 36.7 70.7999 35.9 71.5999L35.3 72.1999C33.9 73.5999 33.1 75.4999 33.1 77.5999V90H35.1V77.5999C35.1 76.0999 35.7 74.6999 36.7 73.6999L37.3 73.0999C38.5 71.8999 39.2 70.2 39.2 68.4V58.5C39.2 56.7 38.5 54.9999 37.3 53.7999C36.2 52.4999 34.4 51.7 32.5 51.7Z" fill="#FCB64F" stroke="#FCB64F" stroke-width="0.5"/>
<path d="M54.1 51.7H50C48.1 51.7 46.3 52.4999 45 53.7999C43.7 55.0999 43.1 56.7 43.1 58.5V68.4C43.1 70.1 43.8 71.7999 45 73.0999L45.6 73.6999C46.7 74.6999 47.2 76.0999 47.2 77.5999V90H49.2V77.5999C49.2 75.5999 48.4 73.6999 47 72.1999L46.4 71.5999C45.5 70.6999 45.1 69.6 45.1 68.4V58.5C45.1 57.3 45.6 56.1 46.4 55.2C47.3 54.3 48.6 53.7 49.9 53.7H54C55.3 53.7 56.6 54.2 57.5 55.2C58.4 56.1 58.8 57.2 58.8 58.5V68.4C58.8 69.6 58.3 70.7999 57.5 71.5999L57 72.1999C55.6 73.5999 54.8 75.4999 54.8 77.5999V90H56.8V77.5999C56.8 76.0999 57.4 74.6999 58.4 73.6999L59 73.0999C60.2 71.8999 60.9 70.2 60.9 68.4V58.5C60.9 56.7 60.2 54.9999 59 53.7999C57.8 52.4999 55.9 51.7 54.1 51.7Z" fill="#FCB64F" stroke="#FCB64F" stroke-width="0.5"/>
<path d="M75.6 51.7H71.5C69.7 51.7 67.8 52.4999 66.5 53.7999C65.2 55.0999 64.6 56.7 64.6 58.5V68.4C64.6 70.1 65.3 71.7999 66.5 73.0999L67.1 73.6999C68.2 74.6999 68.7 76.0999 68.7 77.5999V90H70.7V77.5999C70.7 75.5999 69.9 73.6999 68.5 72.1999L68 71.5999C67.1 70.6999 66.7 69.6 66.7 68.4V58.5C66.7 57.3 67.2 56.1 68 55.2C68.9 54.3 70.2 53.7 71.5 53.7H75.6C76.9 53.7 78.2 54.2 79.1 55.2C80 56.1 80.4 57.2 80.4 58.5V68.4C80.4 69.6 79.9 70.7999 79.1 71.5999L78.5 72.1999C77.1 73.5999 76.3 75.4999 76.3 77.5999V90H78.3V77.5999C78.3 76.0999 78.9 74.6999 79.9 73.6999L80.5 73.0999C81.7 71.8999 82.4 70.2 82.4 68.4V58.5C82.4 56.7 81.7 54.9999 80.5 53.7999C79.3 52.4999 77.5 51.7 75.6 51.7Z" fill="#FCB64F" stroke="#FCB64F" stroke-width="0.5"/>
<path d="M68.7 44.4C68.7 47.1 70.9 49.3 73.6 49.3C76.3 49.3 78.5 47.1 78.5 44.4C78.5 41.7 76.3 39.5 73.6 39.5C70.9 39.5 68.7 41.7 68.7 44.4ZM76.5 44.4C76.5 46 75.2 47.3 73.6 47.3C72 47.3 70.7 46 70.7 44.4C70.7 42.8 72 41.5 73.6 41.5C75.2 41.5 76.5 42.8 76.5 44.4Z" fill="#FCB64F" stroke="#FCB64F" stroke-width="0.5"/>
</g>
<defs>
<clipPath id="clip0">
<rect width="82.6" height="90" fill="white"/>
</clipPath>
</defs>
</svg>
