<svg width="80" height="78" viewBox="0 0 80 78" fill="none" xmlns="http://www.w3.org/2000/svg">
<g clip-path="url(#clip0)">
<path d="M30.7407 19.1058C31.0185 19.5696 31.2963 20.0333 31.6667 20.4043C32.1296 21.0535 32.7778 21.61 33.4259 22.1665C33.6111 22.352 33.7963 22.4447 33.9815 22.5375L34.0741 22.4447C38.8889 17.6219 43.7963 12.7063 48.6111 7.88347C47.6852 6.58502 46.5741 5.47206 45.1852 4.63734C40.8333 8.90369 31.2963 18.5493 30.7407 19.1058ZM51.7593 6.956C53.7037 5.47206 56.1111 4.54459 58.7037 4.3591C58.7963 4.3591 58.7963 4.3591 58.8889 4.3591C58.8889 4.3591 58.8889 4.3591 58.9815 4.3591C59.0741 4.3591 59.0741 4.3591 59.1667 4.3591C64.1667 4.54459 68.7963 7.88347 70.1852 12.799C71.4815 17.6219 69.7222 22.9084 65.5556 25.7836C61.4815 28.566 55.8333 28.4732 51.9444 25.4126C51.1111 24.7634 50.3704 24.0214 49.7222 23.1867C47.3148 25.6908 43.9815 27.2675 40.463 27.3603C36.5741 27.453 32.7778 25.9691 30 23.1867C29.2593 24.1141 28.3333 25.0416 27.3148 25.6908C23.2407 28.4732 17.5926 28.3805 13.7037 25.3199C9.81482 22.352 7.96296 16.8799 9.62963 12.2426C11.3889 7.60523 15.5556 4.54459 20.463 4.26635C20.5556 4.26635 20.5556 4.26635 20.6481 4.26635C20.6481 4.26635 20.6481 4.26635 20.7407 4.26635C20.8333 4.26635 20.8333 4.26635 20.9259 4.26635C23.5185 4.3591 25.9259 5.28656 27.963 6.77051C30.463 2.7824 34.8148 0.27824 39.6296 0C39.7222 0 39.8148 0 39.8148 0H39.9074H40C44.6296 0.0927467 48.9815 2.50416 51.3889 6.49227C51.5741 6.67776 51.6667 6.86326 51.7593 6.956ZM36.7593 23.8359C39.8148 24.7634 43.2407 24.2996 45.9259 22.352C46.7593 21.7955 47.4074 21.1463 48.0556 20.4043C48.4259 19.8478 48.7963 19.2913 49.1667 18.7348C49.8148 17.5291 50.1852 16.2307 50.3704 14.9322C50.5556 13.7265 50.463 12.4281 50.1852 11.1296C50.1852 10.9441 50.0926 10.7586 50 10.5731C49.1667 11.4078 40.3704 20.2188 36.7593 23.8359ZM42.2222 3.43163C41.4815 3.24614 40.6481 3.15339 39.8148 3.15339C35.8333 3.24614 31.9444 5.65755 30.2778 9.27467C30.1852 9.55291 30.0926 9.73841 30 10.0166C29.8148 10.3876 29.7222 10.8514 29.6296 11.2224C29.2593 12.8918 29.2593 14.5612 29.6296 16.1379C30 15.6742 38.8889 6.77051 42.2222 3.43163ZM27.963 20.6825C26.1111 17.4364 25.6481 13.541 26.6667 10.0166C25.0926 8.5327 23.0556 7.60523 20.7407 7.60523C20.3704 7.60523 20.0926 7.60523 19.7222 7.69798C15.1852 8.5327 11.7593 12.4281 12.2222 17.0654C12.6852 21.61 16.7593 25.1344 21.2963 24.7634C24.0741 24.4851 26.5741 22.9084 27.963 20.6825Z" fill="#FCB64F"/>
<path d="M32.7778 74.3829C34.0741 73.0844 53.2407 53.8859 58.0556 49.063C58.1481 48.9703 58.1481 48.9703 58.2407 48.8775C57.5 47.3936 56.7593 46.0024 55.8333 44.6112C53.0556 47.3936 28.6111 71.8787 27.1296 73.3627C28.9815 73.8264 30.9259 74.1046 32.7778 74.3829ZM33.1481 77.5363C31.0185 77.258 28.7963 76.887 26.7593 76.4233C22.7778 75.4031 18.4259 73.5482 16.4815 69.931C14.537 69.7455 12.5926 69.4673 10.7407 69.0963C5.74074 67.9834 0.185186 65.3864 1.21119e-06 59.5434C-0.0925914 53.9786 1.11111 48.3211 3.61111 43.3127C5.64815 39.3246 8.51852 35.7075 12.2222 33.2033C14.6296 31.5339 17.5 30.1427 20.5556 30.1427C23.6111 30.05 26.8519 31.2557 29.2593 33.0178C29.6296 33.2961 30.0926 33.6671 30.463 33.9453C33.0556 32.2759 35.9259 31.0702 38.9815 30.7919C40.8333 30.6992 42.5926 30.8847 44.3519 31.4412C46.1111 31.9976 47.8704 32.8324 49.4444 33.8526C49.7222 33.6671 50.0926 33.3888 50.3704 33.2033C52.7778 31.5339 55.6481 30.1427 58.7037 30.1427C61.7593 30.05 65 31.2557 67.4074 33.0178C71.1111 35.7075 74.1667 39.1391 76.2963 43.22C78.7963 48.1356 80 53.5149 80 59.0797V59.4507C80 60.5636 79.7222 61.5838 79.3518 62.5113C78.9815 63.4388 78.3333 64.9227 77.5 65.5719C73.7037 68.7253 68.5185 69.5601 63.7963 70.0238C63.7037 70.0238 63.6111 70.0238 63.5185 70.0238C62.963 71.1367 62.3148 72.2497 61.3889 72.9917C59.537 74.4756 57.3148 75.4958 55 76.1451C51.3889 77.1653 47.5 77.7218 43.7037 77.9073C42.963 77.9073 42.2222 78 41.4815 78C38.7037 77.9073 35.9259 77.8145 33.1481 77.5363ZM19.6296 55.0916C20 54.7206 20.3704 54.3496 20.7407 53.9786C25 49.7123 39.1667 35.522 40.9259 33.7598C39.3519 33.7598 37.6852 33.8526 36.0185 34.409C35 34.78 33.9815 35.2438 33.0556 35.8002C32.5926 36.0785 32.1296 36.3567 31.7593 36.635C31.2963 36.9132 30.9259 37.2842 30.463 37.5624C24.9074 41.9215 21.2963 48.5065 19.6296 55.0916ZM36.6667 74.6611C38.8889 74.7539 41.0185 74.8466 43.2407 74.7539C45.0926 72.8989 57.7778 60.1926 60.9259 57.0392C60.5556 55.2771 60.0926 53.5149 59.537 51.8454C58.5185 52.8656 57.5 53.8859 56.5741 54.8133C53.0556 58.1522 39.0741 72.2497 36.6667 74.6611ZM54.1667 42.1998C53.2407 40.9941 52.1296 39.8811 51.0185 38.8609C51.0185 38.8609 50.9259 38.8609 50.9259 38.7681C48.7037 40.9941 21.7593 67.9834 21.2963 68.4471C20.9259 68.8181 20.5556 69.1891 20.1852 69.5601C20.2778 69.7455 20.463 69.8383 20.6481 70.0238C21.2963 70.673 22.037 71.2295 22.963 71.6932C23.3333 71.8787 23.7963 72.0642 24.2593 72.2497C24.9074 71.415 49.9074 46.3734 54.1667 42.1998ZM61.6667 65.0155C61.6667 63.5315 61.5741 62.0476 61.3889 60.5636C59.3519 62.6968 49.2593 72.7134 47.7778 74.2901C48.8889 74.1046 50 73.9191 51.1111 73.7337C53.2407 73.2699 55.463 72.8062 57.3148 71.786C57.963 71.415 58.7037 71.044 59.2593 70.5803C59.4444 70.3948 59.6296 70.2093 59.8148 70.0238C60.0926 69.7455 60.2778 69.3746 60.463 69.0036C60.5556 68.8181 60.6481 68.6326 60.7407 68.4471C61.0185 67.9834 61.2037 67.4269 61.3889 66.8704C61.5741 66.3139 61.6667 65.6647 61.6667 65.0155ZM48.5185 37.006L48.3333 36.8205C47.8704 36.5422 47.4074 36.264 46.9444 35.9857C46.0185 35.4293 45.0926 35.0583 44.1667 34.6873C43.0556 35.8002 24.0741 54.8133 18.7037 60.2854C18.5185 62.0476 18.3333 63.8098 18.5185 65.4792C18.5185 65.9429 18.6111 66.4994 18.7963 66.9631C21.9444 63.6243 47.5926 37.9334 48.5185 37.006ZM25.463 37.9334C26.2037 37.1915 27.037 36.4495 27.8704 35.7075C26.2037 34.5018 24.2593 33.5743 22.2222 33.2961C19.8148 32.9251 17.4074 33.6671 15.2778 34.8728C12.037 36.8205 9.35185 39.6029 7.40741 42.7563C4.62963 47.3008 3.24074 52.5874 3.05556 57.9667C3.05556 59.3579 3.05556 60.8419 3.88889 62.0476C4.62963 63.1605 5.64815 63.9025 6.75926 64.459C8.7037 65.3865 10.9259 65.9429 13.1481 66.3139C13.8889 66.4067 14.6296 66.5922 15.463 66.6849C15.0926 64.1807 15.3704 61.4911 15.7407 58.9869C15.8333 58.6159 15.8333 58.3377 15.9259 57.9667C16.3889 55.2771 17.037 52.6802 17.963 50.0832C19.6296 45.5387 22.1296 41.3651 25.463 37.9334Z" fill="#FCB64F"/>
</g>
<defs>
<clipPath id="clip0">
<rect width="80" height="78" fill="white"/>
</clipPath>
</defs>
</svg>
