<svg width="48" height="48" viewBox="0 0 48 48" fill="none" xmlns="http://www.w3.org/2000/svg">
<mask id="path-1-inside-1" fill="white">
<path fill-rule="evenodd" clip-rule="evenodd" d="M23 39.6C31.3395 39.6 38.1 32.8395 38.1 24.5C38.1 23.9938 38.0751 23.4934 38.0264 23H39V20.4528C39.3265 21.7478 39.5 23.1036 39.5 24.5C39.5 33.6127 32.1127 41 23 41C13.8873 41 6.5 33.6127 6.5 24.5C6.5 23.1036 6.67346 21.7478 7 20.4528V24H7.90812C7.90272 24.166 7.9 24.3327 7.9 24.5C7.9 32.8395 14.6605 39.6 23 39.6ZM9.36673 18C11.796 12.9139 16.9877 9.4 23 9.4C29.0123 9.4 34.204 12.9139 36.6333 18H38.1704C35.6473 12.1192 29.8047 8 23 8C16.1953 8 10.3527 12.1192 7.82965 18H9.36673Z"/>
</mask>
<path d="M38.0264 23V22H36.923L37.0313 23.0981L38.0264 23ZM39 23V24H40V23H39ZM39 20.4528L39.9696 20.2083L38 20.4528H39ZM7 20.4528H8L6.03035 20.2083L7 20.4528ZM7 24H6V25H7V24ZM7.90812 24L8.90759 24.0325L8.94119 23H7.90812V24ZM9.36673 18V19H9.99731L10.2691 18.431L9.36673 18ZM36.6333 18L35.7309 18.431L36.0027 19H36.6333V18ZM38.1704 18V19H39.6875L39.0893 17.6057L38.1704 18ZM7.82965 18L6.91065 17.6057L6.31247 19H7.82965V18ZM37.1 24.5C37.1 32.2872 30.7872 38.6 23 38.6V40.6C31.8918 40.6 39.1 33.3918 39.1 24.5H37.1ZM37.0313 23.0981C37.0767 23.559 37.1 24.0266 37.1 24.5H39.1C39.1 23.961 39.0735 23.4278 39.0216 22.9019L37.0313 23.0981ZM39 22H38.0264V24H39V22ZM38 20.4528V23H40V20.4528H38ZM40.5 24.5C40.5 23.0205 40.3162 21.5826 39.9696 20.2083L38.0304 20.6973C38.3369 21.913 38.5 23.1867 38.5 24.5H40.5ZM23 42C32.665 42 40.5 34.165 40.5 24.5H38.5C38.5 33.0604 31.5604 40 23 40V42ZM5.5 24.5C5.5 34.165 13.335 42 23 42V40C14.4396 40 7.5 33.0604 7.5 24.5H5.5ZM6.03035 20.2083C5.68382 21.5826 5.5 23.0205 5.5 24.5H7.5C7.5 23.1867 7.6631 21.913 7.96965 20.6973L6.03035 20.2083ZM8 24V20.4528H6V24H8ZM7.90812 23H7V25H7.90812V23ZM8.9 24.5C8.9 24.3435 8.90254 24.1877 8.90759 24.0325L6.90865 23.9675C6.9029 24.1443 6.9 24.3218 6.9 24.5H8.9ZM23 38.6C15.2128 38.6 8.9 32.2872 8.9 24.5H6.9C6.9 33.3918 14.1082 40.6 23 40.6V38.6ZM10.2691 18.431C12.5386 13.6794 17.3873 10.4 23 10.4V8.4C16.588 8.4 11.0534 12.1484 8.46437 17.569L10.2691 18.431ZM23 10.4C28.6127 10.4 33.4614 13.6794 35.7309 18.431L37.5356 17.569C34.9466 12.1484 29.412 8.4 23 8.4V10.4ZM36.6333 19H38.1704V17H36.6333V19ZM39.0893 17.6057C36.4142 11.3705 30.2187 7 23 7V9C29.3907 9 34.8803 12.8678 37.2514 18.3943L39.0893 17.6057ZM23 7C15.7813 7 9.58575 11.3705 6.91065 17.6057L8.74864 18.3943C11.1197 12.8678 16.6093 9 23 9V7ZM7.82965 19H9.36673V17H7.82965V19Z" fill="#333333" mask="url(#path-1-inside-1)"/>
<path fill-rule="evenodd" clip-rule="evenodd" d="M7.4 18.9806V20.4985C7.4 23.9929 10.2328 26.8257 13.7273 26.8257C17.2217 26.8257 20.0545 23.9929 20.0545 20.4985V18.9806H7.4ZM6.96774 17.5806C6.43327 17.5806 6 18.0138 6 18.5483V20.4985C6 24.7661 9.45961 28.2257 13.7273 28.2257C17.9025 28.2257 21.3044 24.9143 21.4497 20.7744H24.5503C24.6956 24.9143 28.0975 28.2257 32.2727 28.2257C36.5404 28.2257 40 24.7661 40 20.4985V18.5483C40 18.0138 39.5667 17.5806 39.0322 17.5806H25.5132C24.9788 17.5806 24.5455 18.0138 24.5455 18.5483V19.3744H21.4545V18.5483C21.4545 18.0138 21.0212 17.5806 20.4868 17.5806H6.96774ZM25.9455 18.9806V20.4985C25.9455 23.9929 28.7783 26.8257 32.2727 26.8257C35.7672 26.8257 38.6 23.9929 38.6 20.4985V18.9806H25.9455Z" fill="#333333"/>
<path d="M16.0806 31C23.4355 36.5 29.9194 31 29.9194 31" stroke="#333333" stroke-width="1.4" stroke-linecap="round"/>
</svg>
