<svg width="46" height="85" viewBox="0 0 46 85" fill="none" xmlns="http://www.w3.org/2000/svg">
<g clip-path="url(#clip0)">
<path d="M45.1288 42.3229H34.6743C34.1864 42.3229 33.803 42.7125 33.803 43.2083C33.803 43.7041 34.1864 44.0937 34.6743 44.0937H45.1288C45.6167 44.0937 46 43.7041 46 43.2083C46 42.7125 45.6167 42.3229 45.1288 42.3229Z" fill="#FCB64F" stroke="#FCB64F"/>
<path d="M45.1288 34.7084H34.6743C34.1864 34.7084 33.803 35.098 33.803 35.5938C33.803 36.0896 34.1864 36.4792 34.6743 36.4792H45.1288C45.6167 36.4792 46 36.0896 46 35.5938C46 35.098 45.6167 34.7084 45.1288 34.7084Z" fill="#FCB64F" stroke="#FCB64F"/>
<path d="M45.1288 27.0938H34.6743C34.1864 27.0938 33.803 27.4833 33.803 27.9792C33.803 28.475 34.1864 28.8646 34.6743 28.8646H45.1288C45.6167 28.8646 46 28.475 46 27.9792C46 27.4833 45.6167 27.0938 45.1288 27.0938Z" fill="#FCB64F" stroke="#FCB64F"/>
<path d="M45.1288 19.4791H34.6743C34.1864 19.4791 33.803 19.8687 33.803 20.3645C33.803 20.8604 34.1864 21.25 34.6743 21.25H45.1288C45.6167 21.25 46 20.8604 46 20.3645C46 19.8687 45.6167 19.4791 45.1288 19.4791Z" fill="#FCB64F" stroke="#FCB64F"/>
<path d="M34.6743 13.6355H45.1288C45.6167 13.6355 46 13.2459 46 12.75C46 12.2542 45.6167 11.8646 45.1288 11.8646H34.6743C34.1864 11.8646 33.803 12.2542 33.803 12.75C33.803 13.2459 34.1864 13.6355 34.6743 13.6355Z" fill="#FCB64F" stroke="#FCB64F"/>
<path d="M20.0379 54.9313V7.96879C20.0379 7.47296 19.6546 7.08337 19.1667 7.08337C18.6788 7.08337 18.2955 7.47296 18.2955 7.96879V54.9313C12.4583 55.3917 7.84091 60.35 7.84091 66.4063C7.84091 72.7459 12.9288 77.9167 19.1667 77.9167C25.4046 77.9167 30.4924 72.7459 30.4924 66.4063C30.4924 60.35 25.875 55.3917 20.0379 54.9313ZM19.1667 76.1459C13.8871 76.1459 9.58334 71.7719 9.58334 66.4063C9.58334 61.0407 13.8871 56.6667 19.1667 56.6667C24.4462 56.6667 28.75 61.0407 28.75 66.4063C28.75 71.7719 24.4462 76.1459 19.1667 76.1459Z" fill="#FCB64F" stroke="#FCB64F"/>
<path d="M29.447 49.0875V10.625C29.447 4.76354 24.7598 0 18.9924 0C13.225 0 8.53788 4.76354 8.53788 10.625V49.3177C3.18864 52.9479 0 58.9688 0 65.5208C0 76.2698 8.59015 85 19.1667 85C29.7432 85 38.3333 76.2698 38.3333 65.5208C38.3333 62.1031 37.4447 58.7385 35.772 55.7812C34.2212 53.0719 32.0432 50.7698 29.447 49.0875ZM19.1667 83.2292C9.56591 83.2292 1.74242 75.2781 1.74242 65.5208C1.74242 59.4115 4.77424 53.8156 9.87955 50.5396C10.1235 50.3802 10.2803 50.0969 10.2803 49.7958V10.625C10.2803 5.7375 14.1833 1.77083 18.9924 1.77083C23.8015 1.77083 27.7045 5.7375 27.7045 10.625V49.5656C27.7045 49.8844 27.8614 50.1677 28.1227 50.3271C33.4197 53.5677 36.5909 59.2344 36.5909 65.5208C36.5909 75.2781 28.7674 83.2292 19.1667 83.2292Z" fill="#FCB64F" stroke="#FCB64F"/>
</g>
<defs>
<clipPath id="clip0">
<rect width="46" height="85" fill="white"/>
</clipPath>
</defs>
</svg>
