<svg width="66" height="56" viewBox="0 0 66 56" fill="none" xmlns="http://www.w3.org/2000/svg">
<g clip-path="url(#clip0)">
<path d="M58.4196 55.0553C59.2299 55.0553 59.7509 54.4765 59.7509 53.6661C60.156 42.0316 59.9824 37.9797 56.6252 34.6225L48.0006 25.9979C47.6533 25.6506 47.1323 25.4191 46.6693 25.4191C46.2062 25.4191 45.7431 25.5927 45.3958 25.94L40.0127 31.3232L22.5898 13.9003C23.7475 11.3535 23.4581 8.28565 21.6637 5.97032C22.4162 4.81265 22.2425 3.24981 21.2585 2.20791C20.1009 1.05024 18.1907 1.05024 17.033 2.20791L6.96136 12.2796C6.38253 12.8584 6.09311 13.6109 6.09311 14.4213C6.09311 15.2316 6.38253 15.9841 6.96136 16.5629C7.54019 17.1418 8.29267 17.4312 9.10304 17.4312C9.68187 17.4312 10.2607 17.2575 10.7238 16.9681C13.0391 18.7625 16.1069 19.0519 18.6538 17.8943L36.0766 35.3171L30.6935 40.7003C30.3462 41.0476 30.1725 41.4527 30.1725 41.9737C30.1725 42.4946 30.4041 42.9577 30.7514 43.305L39.376 51.8717C42.7332 55.229 47.0166 55.4026 58.4196 55.0553ZM40.823 32.9439L43.5436 35.6644C43.9487 36.0696 44.1224 36.5327 44.1224 37.1115C44.1224 37.6324 43.8909 38.1534 43.5436 38.5586C42.7332 39.3689 41.4598 39.3689 40.7073 38.5586L37.9868 35.7802L40.823 32.9439ZM19.7536 15.0001C17.6698 17.0839 14.3704 17.3154 11.9972 15.7526L20.506 7.24375C22.0689 9.61696 21.8374 12.9163 19.7536 15.0001ZM8.17691 15.2895C7.65596 14.7686 7.65596 14.0161 8.17691 13.4951L18.2486 3.42346C18.7695 2.90251 19.522 2.90251 20.043 3.42346C20.2745 3.65499 20.3903 4.00229 20.3903 4.2917C20.3903 4.639 20.2745 4.92842 20.043 5.15995L19.9851 5.21784L10.0871 15.1159L10.0292 15.1738C9.79764 15.4053 9.45034 15.5211 9.16093 15.5211C8.75574 15.6947 8.40844 15.5211 8.17691 15.2895ZM20.9691 16.2157C21.2006 15.9841 21.4322 15.6947 21.6637 15.4053L38.7971 32.5387L37.2922 34.0437L20.1587 16.9102C20.4482 16.6787 20.7376 16.5051 20.9691 16.2157ZM40.5915 50.6562L31.9669 41.9737C31.909 41.9158 31.909 41.8579 31.909 41.8579L36.7133 37.0536L39.4339 39.7741C40.8809 41.2212 43.312 41.2212 44.7591 39.7741C45.4537 39.0795 45.8589 38.0955 45.8589 37.1115C45.8589 36.1275 45.4537 35.1435 44.7591 34.4489L42.0386 31.7284L46.6114 27.1556C46.6114 27.1556 46.7271 27.1556 46.785 27.2135L55.4096 35.8381C57.5513 37.9797 58.188 40.4687 58.188 47.0674C58.188 48.8039 58.1301 50.8877 58.0723 53.3188C46.6114 53.6661 43.312 53.3767 40.5915 50.6562Z" fill="#FCB64F" stroke="#FCB64F"/>
</g>
<defs>
<clipPath id="clip0">
<rect width="55" height="66" fill="white" transform="translate(66 0.760132) rotate(90)"/>
</clipPath>
</defs>
</svg>
