<svg width="80" height="80" viewBox="0 0 80 80" fill="none" xmlns="http://www.w3.org/2000/svg">
<g clip-path="url(#clip0)">
<path d="M79 78H41V45.9C53.2 45.4 63 35.3 63 23C63 10.3 52.7 0 40 0C27.3 0 17 10.3 17 23C17 35.3 26.8 45.4 39 45.9V78H1C0.4 78 0 78.4 0 79C0 79.6 0.4 80 1 80H79C79.6 80 80 79.6 80 79C80 78.4 79.6 78 79 78ZM19 23C19 11.4 28.4 2 40 2C51.6 2 61 11.4 61 23C61 34.2 52.1 43.4 41 43.9V34.6L49.6 26C50 25.6 50 25 49.6 24.6C49.2 24.2 48.6 24.2 48.2 24.6L41 31.8V18.2C41 17.6 40.6 17.2 40 17.2C39.4 17.2 39 17.6 39 18.2V31.8L31.8 24.6C31.4 24.2 30.8 24.2 30.4 24.6C30 25 30 25.6 30.4 26L39 34.6V43.9C27.9 43.4 19 34.2 19 23Z" fill="#FCB64F" stroke="#FCB64F"/>
</g>
<defs>
<clipPath id="clip0">
<rect width="80" height="80" fill="white"/>
</clipPath>
</defs>
</svg>
