<svg width="114" height="83" viewBox="0 0 114 83" fill="none" xmlns="http://www.w3.org/2000/svg">
<path d="M61.2918 13.3434V26.7349H58.2501V13.3434H55.119V10.3789H64.3335V13.3434H61.2918Z" fill="#3D3D3E"/>
<path d="M73.4586 26.8374C72.2061 26.8374 71.7588 25.8151 71.7588 24.384V21.7261C71.7588 20.9083 71.4009 20.0904 70.5063 20.0904H68.896V26.7352H65.8543V10.3789H71.0431C73.3691 10.3789 74.8005 11.9123 74.8005 14.2635V16.0014C74.8005 17.3303 74.2637 18.3526 72.9218 18.7615C74.1742 19.0682 74.8005 20.2949 74.8005 21.4194V24.0773C74.8005 24.7929 74.9794 25.304 75.4267 25.7129V26.7352H73.4586V26.8374ZM71.6693 14.468C71.6693 13.6502 71.4009 13.139 70.5958 13.139H68.896V17.637H70.5063C71.3115 17.637 71.7588 17.1259 71.7588 16.2058V14.468H71.6693Z" fill="#3D3D3E"/>
<path d="M76.7686 26.7349V10.3789H84.7307V13.3434H79.8103V16.9213H83.2098V19.5791H79.8103V23.6681H84.7307V26.7349H76.7686Z" fill="#3D3D3E"/>
<path d="M86.341 26.7349V10.3789H94.303V13.3434H89.3827V16.9213H92.7822V19.5791H89.3827V23.6681H94.303V26.7349H86.341Z" fill="#3D3D3E"/>
<path d="M55.9241 52.2905V35.9341H63.8861V38.8987H58.9657V42.4767H62.3653V45.1346H58.9657V49.2237H63.8861V52.2905H55.9241Z" fill="#3D3D3E"/>
<path d="M74.2637 52.6997C73.548 52.6997 72.8323 52.2908 72.4745 51.8819C71.8482 52.393 71.0431 52.6997 69.8801 52.6997C67.1068 52.6997 65.3176 50.5529 65.3176 47.7928V40.4323C65.3176 37.6722 67.0173 35.5254 70.059 35.5254C73.0112 35.5254 74.8004 37.6722 74.8004 40.4323V47.895C74.8004 48.6106 74.711 49.224 74.4426 49.7351C74.711 50.0418 74.9794 50.144 75.7845 50.144V52.393C75.3372 52.4953 74.9794 52.6997 74.2637 52.6997ZM71.6693 40.1257C71.6693 39.2056 71.1325 38.3878 70.059 38.3878C69.0749 38.3878 68.4487 39.2056 68.4487 40.1257V47.9972C68.4487 48.9173 68.9855 49.7351 70.059 49.7351C70.4168 49.7351 70.6852 49.6329 70.9536 49.5306L70.3274 48.9173L71.6693 47.4861V40.1257Z" fill="#3D3D3E"/>
<path d="M81.51 52.6997C78.8262 52.6997 76.858 50.8596 76.858 48.0994V35.9341H79.9892V47.9972C79.9892 49.1217 80.526 49.7351 81.5995 49.7351C82.673 49.7351 83.2098 49.1217 83.2098 47.9972V35.9341H86.162V48.0994C86.162 50.7573 84.2833 52.6997 81.51 52.6997Z" fill="#3D3D3E"/>
<path d="M88.1302 52.2905V35.9341H91.1719V52.2905H88.1302Z" fill="#3D3D3E"/>
<path d="M98.7761 38.8987V52.2905H95.7344V38.8987H92.6032V35.9341H101.818V38.8987H98.7761Z" fill="#3D3D3E"/>
<path d="M109.511 45.4414V52.1885H106.47V45.4414L102.802 35.832H106.022L108.17 42.2724L110.227 35.832H113.269L109.511 45.4414Z" fill="#3D3D3E"/>
<path d="M60.0393 78.2544C57.266 78.2544 55.4768 76.4144 55.4768 73.6544V72.8366H58.2501V73.3477C58.2501 74.6766 58.8763 75.4944 59.9499 75.4944C61.0234 75.4944 61.5602 74.7788 61.5602 73.6544C61.5602 72.4277 60.755 71.8144 59.0553 70.7922C57.3555 69.77 55.4768 68.4411 55.4768 65.8855C55.4768 63.3299 57.0871 61.0811 59.9499 61.0811C62.5443 61.0811 64.3335 63.1255 64.3335 65.6811V66.2944H61.5602V65.7833C61.5602 64.6588 61.0234 63.8411 59.9499 63.8411C59.0553 63.8411 58.429 64.4544 58.429 65.4766C58.429 66.6011 59.2342 67.3166 61.1129 68.3388C63.081 69.5655 64.5124 70.8944 64.5124 73.2455C64.6019 75.9033 62.9021 78.2544 60.0393 78.2544Z" fill="#3D3D3E"/>
<path d="M70.9536 78.2544C67.9119 78.2544 66.1227 76.0055 66.1227 73.2456V66.1924C66.1227 63.3302 67.9119 61.1836 70.9536 61.1836C73.9058 61.1836 75.4266 63.228 75.4266 65.9879V67.419H72.6533V65.8857C72.6533 64.7613 72.1166 64.0458 70.9536 64.0458C69.7906 64.0458 69.2538 64.7613 69.2538 65.8857V73.5523C69.2538 74.5745 69.7906 75.3922 70.9536 75.3922C72.1166 75.3922 72.6533 74.6767 72.6533 73.5523V72.019H75.4266V73.6545C75.4266 76.21 73.9058 78.2544 70.9536 78.2544Z" fill="#3D3D3E"/>
<path d="M81.689 78.2544C78.7367 78.2544 76.9475 76.2099 76.9475 73.2455V66.0899C76.9475 63.2277 78.7367 61.0811 81.689 61.0811C84.6412 61.0811 86.4304 63.1255 86.4304 66.0899V73.2455C86.4304 76.1077 84.6412 78.2544 81.689 78.2544ZM83.2993 65.8855C83.2993 64.7611 82.7625 64.0455 81.689 64.0455C80.7049 64.0455 80.0787 64.7611 80.0787 65.8855V73.45C80.0787 74.5744 80.6154 75.2899 81.689 75.2899C82.7625 75.2899 83.2993 74.5744 83.2993 73.45V65.8855Z" fill="#3D3D3E"/>
<path d="M95.9134 77.9478C94.6609 77.9478 94.2136 76.9256 94.2136 75.4945V72.8369C94.2136 72.0191 93.8558 71.2014 92.9611 71.2014H91.3508V77.8455H88.3091V61.4907H93.4979C95.8239 61.4907 97.2553 63.024 97.2553 65.375V67.1127C97.2553 68.4415 96.7185 69.4637 95.3766 69.8726C96.6291 70.1792 97.2553 71.4058 97.2553 72.5302V75.1879C97.2553 75.9034 97.4342 76.4145 97.8815 76.8234V77.8455H95.9134V77.9478ZM94.1241 65.5794C94.1241 64.7617 93.8558 64.2506 93.0506 64.2506H91.3508V68.7482H92.9611C93.7663 68.7482 94.2136 68.2371 94.2136 67.3171V65.5794H94.1241Z" fill="#3D3D3E"/>
<path d="M99.2234 77.8462V61.4907H107.185V64.4551H102.265V68.0329H105.665V70.6907H102.265V74.7795H107.185V77.8462H99.2234Z" fill="#3D3D3E"/>
<path d="M21.9875 69.8291C21.9875 69.8291 21.9158 76.3025 22.7046 81.3828" stroke="#3D3D3E" stroke-width="2.4535" stroke-miterlimit="10" stroke-linecap="round"/>
<path d="M6.78427 15.0906C7.14284 14.6809 21.7006 30.0043 21.7006 30.0043L21.844 69.0093L19.7643 67.2065L16.3221 60.4052L14.6727 57.865L11.0153 55.9803L10.0114 52.8665L7.71654 50.8998L7.57312 48.2776L11.8759 48.1137L15.6767 49.179L18.0432 49.0151L13.3102 44.1805L10.5134 43.361L6.71256 42.4597L5.56515 38.6083L0.616943 28.6112L2.98348 25.9071L11.3739 29.5946L7.07112 21.9738L6.78427 15.0906Z" fill="#F79131"/>
<path d="M21.9158 43.6069L45.7245 22.8755L46.5851 25.006L40.2026 39.264L29.1588 43.6888L27.2225 47.4582C27.2225 47.4582 35.111 46.8026 35.2544 46.8846C35.3978 47.0485 35.3978 48.3596 35.3978 48.3596L34.107 51.2275L32.3859 53.7677L29.0154 56.0621L27.2225 62.5356L24.2823 67.3702L21.9158 69.6646V43.6069Z" fill="#98C558"/>
<path d="M45.0074 22.2196L45.4377 23.1209L21.7723 44.0981C21.7723 44.0981 21.4855 1.40621 21.7723 1.32427C22.0592 1.24233 24.7126 3.20894 24.7126 3.20894L26.7205 8.12548L27.366 12.0587L28.8002 10.5837L32.2425 7.79771L36.115 8.61713L36.9038 13.8614L35.8281 20.171L33.0313 24.2681L32.5293 26.3167L34.5373 26.4806L43.5014 21.9737L45.0074 22.2196Z" fill="#5EB546"/>
<path d="M21.127 0.833008L21.8441 2.22602L21.5572 30.0044L7.35803 15.009L7.2146 13.6979L8.93572 11.6494L15.605 13.8618L15.8919 12.7146L15.7485 7.88003L16.9676 3.37321L19.1907 1.32466L21.127 0.833008Z" fill="#FCB64F"/>
<path d="M22.5612 69.3362C20.6967 67.1238 19.0473 64.4197 17.8998 61.7156C17.3261 60.4045 16.8959 59.0115 16.0353 57.8643C15.2465 56.7991 14.099 56.3894 12.9516 55.8977C12.3779 55.6519 11.8042 55.488 11.4457 54.8325C11.0871 54.1769 11.0154 53.4394 10.6568 52.7839C10.2265 52.1284 9.65283 51.6367 9.07913 51.1451C8.79227 50.8173 8.00343 50.1618 8.21857 49.5882C8.43371 49.0965 9.86797 49.3423 10.2982 49.3423C11.1588 49.3423 12.0194 49.4243 12.8082 49.5882C14.3859 49.9159 15.8202 50.4076 17.3261 51.0631C17.7564 51.227 18.3301 50.8173 18.4018 50.3256C18.617 49.1784 18.617 47.8674 17.8998 46.966C17.111 45.9827 16.0353 45.7369 15.1747 44.9175C14.099 43.8522 13.2385 43.0328 11.8759 42.705C10.5851 42.3772 9.22255 42.4592 8.00343 41.7217C7.50144 41.4759 6.99944 40.9842 6.85602 40.4106C6.64088 39.5912 6.92773 38.6898 6.71259 37.8704C6.35402 36.3135 4.99148 35.4122 4.13092 34.265C3.12693 32.9539 2.4098 31.4789 1.97952 29.8401C1.8361 29.1846 1.54924 28.2013 2.12295 27.7096C2.55323 27.2999 3.27036 27.2179 3.77235 27.2179C7.21458 27.0541 9.43769 31.0692 12.7365 31.7248C13.5971 31.8887 14.2425 30.8234 13.5971 30.004C12.8082 28.9387 12.0911 27.7096 11.3022 26.6444C10.5851 25.5791 9.79626 24.6777 9.15084 23.6125C8.50542 22.5472 7.86 21.3181 7.64486 20.007C7.42972 18.7779 7.64486 17.5488 7.78829 16.3196C7.86 15.3363 8.00343 14.1072 8.64885 13.2878C9.29427 12.5503 10.1548 12.7142 10.9437 13.042C12.6648 13.7794 14.099 15.2544 16.0353 15.0905C16.609 15.0086 17.0393 14.5169 16.8959 13.7794C16.4656 11.567 16.3939 9.43651 16.8242 7.22407C17.2544 5.17552 18.0433 2.63531 20.0512 2.2256C21.7724 1.89783 23.6369 3.20891 24.5692 4.84775C25.7883 6.97824 26.0751 9.68233 26.2903 12.1406C26.362 13.042 27.2226 13.4517 27.7963 12.8781C28.872 11.8948 29.9477 10.9115 31.0234 10.0101C31.7405 9.43651 32.3859 8.86291 33.3182 8.78097C34.3939 8.69903 35.2544 9.19068 35.4696 10.4198C35.7564 11.7309 35.6847 13.2878 35.613 14.5989C35.5413 16.0738 35.3979 17.4668 34.9676 18.8599C34.5373 20.2529 33.8919 21.482 33.1748 22.7111C32.5293 23.7764 31.7405 24.7597 31.2385 25.9069C31.0234 26.4805 31.1668 27.2999 31.7405 27.3818C34.7524 28.0374 37.119 26.0708 39.6289 24.5139C40.8481 23.7764 42.354 22.957 43.7166 23.2847C44.2903 23.3667 45.0791 23.6944 45.366 24.4319C45.6528 25.1694 45.1509 25.8249 44.7923 26.3166C43.86 27.6277 42.9277 28.6929 42.7126 30.4137C42.5692 31.397 42.7126 32.2984 42.0672 33.1178C41.4935 33.8553 41.0632 34.4289 40.8481 35.3302C40.6329 36.2316 40.4895 36.9691 39.9158 37.7065C39.4138 38.2801 38.7684 38.7718 38.123 39.0996C36.5453 40.0009 34.8959 40.4926 33.2465 41.0662C31.4536 41.6398 29.6608 42.2134 28.2265 43.5244C26.9357 44.6716 25.7883 46.4744 26.7923 48.359C26.9357 48.6049 27.2943 48.9326 27.5811 48.8507C29.3022 48.6048 31.0234 48.441 32.7445 48.1951C33.3899 48.1132 34.107 47.8674 34.7524 48.0313C34.8959 48.0313 35.0393 48.1132 35.111 48.1951C35.111 47.8674 35.0393 47.7854 34.8959 48.1132C34.6807 48.1951 34.4656 48.5229 34.3222 48.6868C33.4616 49.752 33.4616 51.227 32.8162 52.3742C32.1708 53.4394 30.9516 53.7672 30.0194 54.3408C28.9437 54.9963 28.1548 55.8158 27.6528 57.0449C27.1508 58.5198 26.9357 60.1587 26.362 61.6336C25.2146 64.6655 23.4935 67.2877 21.2704 69.3362C20.4098 70.1556 21.6289 71.6306 22.5612 70.8112C24.4257 69.0084 26.0751 66.796 27.2226 64.2558C27.7963 63.0267 28.2983 61.7156 28.6568 60.4045C29.0154 59.1754 29.0871 57.5365 30.0194 56.6352C30.8082 55.8977 31.8122 55.5699 32.6728 54.9963C33.5333 54.4227 34.2505 53.6033 34.6807 52.5381C34.8959 51.9645 35.0393 51.3909 35.1827 50.8173C35.3979 50.0798 35.7564 49.834 36.2584 49.3423C36.9756 48.5229 37.119 47.2938 36.2584 46.5563C35.2544 45.6549 33.8919 45.9827 32.7445 46.0646C31.0234 46.3105 29.3022 46.4744 27.5811 46.7202C27.868 46.8841 28.0831 47.0479 28.37 47.2118C27.5811 45.6549 30.4497 44.18 31.3819 43.7703C33.1748 43.0328 35.111 42.5411 36.9038 41.7217C38.3381 41.1481 39.7724 40.4926 40.9198 39.3454C41.4218 38.8537 41.8521 38.1982 42.2106 37.4607C42.5692 36.5594 42.5692 35.4941 43.2146 34.7566C43.7883 34.1011 44.2903 33.5275 44.4337 32.6261C44.6489 31.7248 44.5054 30.6595 44.7923 29.7582C45.366 28.2832 46.8003 27.3818 47.2305 25.743C47.6608 24.1861 47.0154 22.7111 45.868 21.8917C44.5771 20.9903 42.9277 20.9903 41.4935 21.4001C39.8441 21.8917 38.4098 22.957 36.9038 23.9403C35.4696 24.8416 33.9636 25.743 32.3142 25.3333C32.4576 25.8249 32.6728 26.3166 32.8162 26.8082C33.4616 25.3333 34.5373 24.1041 35.2544 22.7111C35.9716 21.3181 36.617 19.8432 36.9756 18.2863C37.4058 16.5655 37.4775 14.6808 37.4058 12.8781C37.3341 11.4031 37.4058 9.60039 36.617 8.37126C35.3261 6.15882 32.4576 6.32271 30.6648 7.63378C29.2305 8.69903 27.7963 10.0101 26.4337 11.2392C26.9357 11.4851 27.4377 11.7309 27.9397 11.9767C27.6528 8.94485 27.2943 5.66717 25.6449 3.12696C24.2823 1.07841 21.9875 -0.396549 19.6927 0.0951042C17.1827 0.586757 15.7485 3.20891 15.103 5.74911C14.3859 8.61709 14.4576 11.3212 14.9596 14.1892C15.2465 13.7794 15.5333 13.2878 15.8202 12.8781C13.5971 13.1239 11.9477 10.6656 9.72454 10.5837C7.2863 10.4198 6.13889 12.96 5.85203 15.3363C5.70861 16.7294 5.49347 18.1224 5.56518 19.5154C5.70861 20.9903 6.2106 22.3834 6.92773 23.6125C7.64486 24.9236 8.50542 25.9888 9.36598 27.2179C10.37 28.529 11.1588 30.004 12.1628 31.3151C12.4496 30.7415 12.7365 30.1679 13.0234 29.5943C10.0114 29.1026 7.86 25.4152 4.5612 25.1694C3.34207 25.0875 1.90781 25.2513 0.903824 26.2346C-0.243587 27.3818 -0.100161 29.0207 0.258405 30.5776C0.760397 32.2984 1.47753 33.8553 2.48151 35.2483C2.98351 35.9038 3.4855 36.4774 4.0592 37.051C4.77634 37.7885 5.06319 38.3621 5.06319 39.5093C4.99148 41.1481 5.56518 42.3772 6.7843 43.2786C8.00343 44.18 9.43769 44.3439 10.872 44.5897C11.6608 44.7536 12.5214 44.9175 13.2385 45.491C13.8122 45.9827 14.3142 46.6382 14.8879 47.0479C15.4616 47.4577 16.107 47.6215 16.609 48.1132C16.6807 48.1951 16.7524 48.359 16.8959 48.441C17.0393 48.6048 16.9676 48.5229 16.8959 48.359C16.8242 48.1132 16.7524 48.1132 16.8242 48.2771C16.8242 48.359 16.8959 48.6868 16.8959 48.6868C16.9676 49.0146 16.8959 49.4243 16.8959 49.752C17.2544 49.5062 17.613 49.2604 17.9716 49.0146C15.3899 47.8674 12.6648 47.2118 9.86797 47.1299C8.72056 47.1299 7.35801 47.2118 6.85602 48.5229C6.42574 49.5882 6.7843 50.9812 7.50144 51.8006C7.86 52.2922 8.36199 52.62 8.79227 53.0297C9.36598 53.6033 9.58112 54.1769 9.86797 54.9963C10.2983 56.2255 11.0154 57.0449 12.0911 57.5365C13.1668 58.0282 14.2425 58.1921 15.0313 59.2573C15.7485 60.3226 16.107 61.6337 16.609 62.7808C17.8281 65.5669 19.5492 68.3529 21.4138 70.5653C22.1309 71.7125 23.35 70.3195 22.5612 69.3362Z" fill="#3D3D3E"/>
<path d="M35.1827 33.2816L46.0114 23.5304C45.7246 23.1206 45.2226 22.7929 44.7206 22.547L34.2505 31.9705L22.6329 42.2134V38.3621L22.5612 1.73345C22.0592 1.48762 21.4855 1.32373 20.9835 1.32373V28.5289L10.8003 17.3846L7.50145 13.861C7.28631 14.4347 7.14288 15.0902 7.07117 15.7457L9.79627 18.6138L21.0552 30.9052V38.444L21.2704 68.9269C21.5572 69.3366 21.8441 69.6644 22.1309 69.9922C22.4178 69.7464 22.6329 69.5005 22.9198 69.1728L22.6329 44.3439L35.1827 33.2816Z" fill="#171717"/>
<path d="M46.0831 23.4487C45.7963 23.0389 45.2943 22.6292 44.7206 22.4653H44.6489L34.1787 31.8888L22.7046 42.0497V38.4442L22.6329 1.73376V1.65181H22.5612C21.9875 1.40599 21.4855 1.2421 20.9118 1.16016H20.8401V28.2833L10.872 17.3029L7.42973 13.6155L7.35801 13.7794C7.14287 14.271 6.99945 14.9266 6.92773 15.6641V15.746L9.65284 18.696L20.9118 30.9874V38.4442L21.1269 68.927C21.4855 69.3367 21.7006 69.6645 21.9875 69.9923L22.0592 70.0742L22.1309 69.9923C22.3461 69.7464 22.6329 69.5006 22.8481 69.2548L22.9198 69.1728L22.7763 44.4261L35.2544 33.3638L46.0831 23.6125V23.4487Z" fill="#3D3D3E"/>
</svg>
