<svg width="48" height="48" viewBox="0 0 48 48" fill="none" xmlns="http://www.w3.org/2000/svg">
<path fill-rule="evenodd" clip-rule="evenodd" d="M23.9141 14.4063L23.9183 14.3878L23.9184 14.3875L23.9256 14.3505L23.9376 14.311C24.2241 13.3664 24.1742 12.3516 23.7965 11.4396C23.4187 10.5276 22.7364 9.77484 21.8659 9.30951C20.9953 8.84418 19.9903 8.6951 19.0221 8.88768C18.054 9.08026 17.1825 9.60258 16.5563 10.3656C15.9301 11.1287 15.5878 12.0853 15.5878 13.0724C15.5878 13.5143 15.2296 13.8724 14.7878 13.8724C14.346 13.8724 13.9878 13.5143 13.9878 13.0724C13.9878 11.7151 14.4584 10.3998 15.3195 9.35061C16.1806 8.30141 17.3788 7.58322 18.71 7.31843C20.0412 7.05363 21.4231 7.25861 22.6201 7.89843C23.8171 8.53826 24.7553 9.57335 25.2747 10.8273C25.7897 12.0707 25.8615 13.4529 25.4786 14.7423L25.4717 14.7723C25.4621 14.8131 25.4482 14.8686 25.429 14.9367C25.3907 15.0726 25.331 15.2598 25.2426 15.4812C25.0662 15.9224 24.7712 16.5097 24.2934 17.0986C23.3169 18.3023 21.6273 19.4459 18.8412 19.4459L18.8412 17.8459C21.1218 17.8459 22.3632 16.9382 23.0509 16.0905C23.4053 15.6538 23.6257 15.2154 23.7568 14.8874C23.8221 14.7242 23.8641 14.5908 23.8891 14.5024C23.9015 14.4582 23.9096 14.4256 23.9141 14.4063ZM18.8411 17.8459H6.21467C5.77284 17.8459 5.41467 18.2041 5.41467 18.6459C5.41467 19.0877 5.77284 19.4459 6.21467 19.4459H18.8411V17.8459ZM29.6519 33.5937L29.6561 33.6122L29.6561 33.6125L29.6633 33.6495L29.6753 33.689C29.9618 34.6336 29.912 35.6483 29.5342 36.5603C29.1564 37.4723 28.4742 38.2251 27.6036 38.6905C26.733 39.1558 25.728 39.3049 24.7599 39.1123C23.7917 38.9197 22.9203 38.3974 22.294 37.6343C21.6678 36.8713 21.3255 35.9147 21.3255 34.9275C21.3255 34.4857 20.9673 34.1275 20.5255 34.1275C20.0837 34.1275 19.7255 34.4857 19.7255 34.9275C19.7255 36.2848 20.1961 37.6001 21.0572 38.6493C21.9183 39.6986 23.1165 40.4167 24.4477 40.6815C25.7789 40.9463 27.1608 40.7414 28.3578 40.1015C29.5548 39.4617 30.493 38.4266 31.0124 37.1726C31.5274 35.9293 31.5992 34.5471 31.2163 33.2576L31.2094 33.2277C31.1998 33.1868 31.1859 33.1313 31.1667 33.0633C31.1284 32.9274 31.0688 32.7402 30.9803 32.5188C30.8039 32.0775 30.5089 31.4903 30.0311 30.9014C29.0546 29.6977 27.365 28.5541 24.5789 28.5541V30.1541C26.8595 30.1541 28.1009 31.0618 28.7886 31.9094C29.143 32.3462 29.3635 32.7846 29.4945 33.1126C29.5598 33.2758 29.6018 33.4092 29.6268 33.4976C29.6392 33.5417 29.6473 33.5744 29.6519 33.5937ZM24.5789 28.5541L6.21474 28.5541C5.77291 28.5541 5.41474 28.9122 5.41474 29.3541C5.41474 29.7959 5.77291 30.1541 6.21474 30.1541H24.5789V28.5541ZM40.7864 20.01L40.7823 20.0279C40.7779 20.0466 40.77 20.0785 40.7578 20.1216C40.7334 20.2081 40.6923 20.3386 40.6284 20.4985C40.5 20.8197 40.2841 21.249 39.9371 21.6768C39.264 22.5063 38.0485 23.3959 35.8125 23.3959H6.73517C6.29334 23.3959 5.93517 23.7541 5.93517 24.1959C5.93517 24.6378 6.29334 24.9959 6.73517 24.9959H35.8125C38.554 24.9959 40.2177 23.8704 41.1796 22.6848C41.65 22.1049 41.9405 21.5267 42.1141 21.0922C42.2013 20.8742 42.26 20.6899 42.2978 20.5559C42.3167 20.4889 42.3304 20.4342 42.3399 20.3939L42.3466 20.3648C42.7234 19.0951 42.6527 17.7341 42.1456 16.5098C41.6341 15.275 40.7103 14.2556 39.5315 13.6255C38.3527 12.9955 36.9918 12.7936 35.6809 13.0544C34.3699 13.3151 33.19 14.0224 32.342 15.0556C31.4941 16.0888 31.0306 17.3841 31.0306 18.7208C31.0306 19.1626 31.3888 19.5208 31.8306 19.5208C32.2724 19.5208 32.6306 19.1626 32.6306 18.7208C32.6306 17.7543 32.9657 16.8177 33.5788 16.0706C34.192 15.3236 35.0451 14.8122 35.993 14.6236C36.9409 14.4351 37.9249 14.581 38.7772 15.0366C39.6296 15.4922 40.2976 16.2292 40.6674 17.1221C41.0373 18.015 41.0861 19.0085 40.8055 19.9334L40.7935 19.9729L40.7864 20.01Z" fill="#333333"/>
</svg>
